<?xml version="1.0" standalone="no"?>
<!DOCTYPE svg PUBLIC "-//W3C//DTD SVG 1.1//EN" "http://www.w3.org/Graphics/SVG/1.1/DTD/svg11.dtd" >
<svg xmlns="http://www.w3.org/2000/svg" xmlns:xlink="http://www.w3.org/1999/xlink" version="1.1">
<metadata></metadata>
<defs>
<font id="dingbatsregular" horiz-adv-x="1855" >
<font-face units-per-em="2048" ascent="1638" descent="-410" />
<missing-glyph horiz-adv-x="2117" />
<glyph unicode="&#xd;" horiz-adv-x="2117" />
<glyph unicode=" "  horiz-adv-x="2117" />
<glyph unicode="&#x09;" horiz-adv-x="2117" />
<glyph unicode="&#xa0;" horiz-adv-x="2117" />
<glyph unicode="!" horiz-adv-x="2304" d="M0 442q0 104 74 158q63 45 168 45q66 0 98.5 -3t73.5 -16.5t94 -13.5q80 0 166 39q125 57 151 111q-76 152 -274 227q-158 51 -315 103q-154 72 -154 231q0 82 67.5 151.5t145.5 69.5q109 0 204 -77.5t95 -178.5q0 -39 -17.5 -86t-35.5 -96q0 -16 28.5 -31.5t79.5 -27.5 q109 -25 230 -127q39 -33 100 -101l801 60q106 0 261.5 -58.5t184.5 -115.5l-1012 -121l234 -289l-234 -21l-253 291q-63 -25 -200.5 -26.5t-201.5 -12.5q-23 -4 -37 -12t-14 -31l8 -92q0 -102 -74.5 -166.5t-171.5 -64.5q-98 0 -184 94t-86 188zM90 438q0 -59 60.5 -125.5 t119.5 -66.5t98.5 48t45.5 116q10 70 -45.5 114.5t-126.5 44.5q-63 0 -107.5 -34.5t-44.5 -96.5zM156 1317q0 -70 67.5 -129.5t132.5 -59.5q45 0 84.5 35t53.5 88q4 20 4 29q0 70 -70 122t-141 52q-57 0 -94 -45t-37 -92z" />
<glyph unicode="&#x22;" horiz-adv-x="2304" d="M4 1266q0 100 89 177t177 77q104 0 185.5 -77t81.5 -173q0 -47 -25 -103q0 -80 168 -93t281 -81q119 27 339 115q283 113 361 139q203 70 324 70q80 0 140 -25.5t101 -85.5l-913 -346l913 -334q-25 -61 -85 -88.5t-142 -27.5q-164 0 -486 118q-276 106 -552 215 q-133 -86 -324 -106q-135 -14 -135 -57q0 -39 19.5 -84t19.5 -62q0 -96 -89.5 -165.5t-230.5 -69.5q-80 0 -143.5 75.5t-63.5 167.5q0 109 101.5 186t267.5 77q12 0 30.5 -1.5t37 -3.5t30.5 -2h25q86 0 158 37q80 43 122 125q-53 137 -235 143.5t-309 10.5q-102 0 -170 75.5 t-68 176.5zM102 438q0 -57 43 -104t111 -47q72 0 129 54t49 126q-8 57 -43 96t-90 39q-94 0 -146.5 -51t-52.5 -113zM102 1255q0 -55 33 -98q41 -55 113 -55q16 0 53 8q133 35 133 160q0 68 -35 106q-45 49 -139 49q-59 0 -108.5 -53t-49.5 -117z" />
<glyph unicode="#" horiz-adv-x="2363" d="M49 1305q0 94 86 188t184 94q96 0 171 -63.5t75 -167.5l-8 -92q0 -23 12.5 -31t57.5 -15.5t182 -9.5t201 -26l254 291l233 -21l-233 -289l1011 -121q-29 -57 -183.5 -115.5t-262.5 -58.5l-801 60q-59 -66 -98 -99q-123 -104 -232 -129q-53 -12 -80.5 -26.5t-27.5 -32.5 q16 -49 34.5 -98t18.5 -84q0 -100 -94 -178t-205 -78q-76 0 -144.5 68.5t-68.5 152.5q0 158 152 229q158 51 315 103q201 76 276 229q-16 33 -104 84q-113 66 -213 66q-31 0 -49.5 -2.5t-47 -12.5t-77.5 -14t-92 -4q-106 0 -168 43q-74 51 -74 160zM139 1309q0 -59 44 -95 t108 -36q66 0 120 38.5t54 102.5q-2 12 -2 18q-6 68 -45 116t-99 48q-57 0 -118.5 -65.5t-61.5 -126.5zM205 430q0 -45 38 -91t93 -46q70 0 140.5 53t70.5 121q0 9 -4 29q-14 53 -53 87.5t-84 34.5q-63 0 -132 -60t-69 -128z" />
<glyph unicode="$" horiz-adv-x="2332" d="M4 371q0 66 24.5 135t69.5 121q96 109 295 113.5t269 41.5q27 8 53 19q25 16 24 78q0 55 -286 77q-164 12 -222 37q-111 47 -169 139.5t-58 204.5q0 154 101.5 275t261.5 121q184 0 282 -119q80 -96 80 -234q0 -66 -18.5 -119t-48.5 -75q43 -14 88 -15q35 0 67 7 q98 18 105 18q41 0 76.5 -14.5t68.5 -53.5q150 102 268 172q166 96 293 144q154 57 283 57q104 0 193.5 -41t150.5 -133l-797 -487l776 -488q-66 -90 -150.5 -134t-176.5 -44q-174 0 -406 141q-227 156 -452 312q-43 -47 -96.5 -67.5t-106.5 -20.5q-29 0 -74 6t-57 6 q-29 0 -33 -6q47 -88 47 -201q0 -139 -88 -238q-96 -106 -256 -106q-141 0 -261 113.5t-120 257.5zM72 367q0 -100 91 -203t208 -103q102 0 180 64q94 76 94 209q0 39 -20 96q-45 125 -45 135q0 16 47 41q27 14 44 19.5t38 5.5q20 0 57 -10.5t57 -10.5q76 0 138 29 q73 34 124 104q-47 0 -66.5 14.5t-49.5 63.5q-4 4 -6 17q-2 10 -2 22q0 33 7 61.5t21 53.5q-27 -27 -94 -57q-98 -43 -98 -117q-12 -100 -334 -121q-190 -12 -270 -53q-29 -14 -70 -90q-51 -94 -51 -170zM72 1395q0 -236 166 -310q74 -33 286.5 -42t233.5 -87l231 136 q-14 8 -49 17t-57 9q-35 0 -110 -5t-91 -5q-57 0 -87 10t-30 39q25 63 45.5 119.5t20.5 107.5q0 23 -1 46.5t-7 52.5q-29 70 -109 114q-66 37 -152 50q-14 2 -43 2q-98 0 -163 -68q-84 -86 -84 -186zM131 1362q0 12 4 41q16 88 71.5 141t141.5 53q98 0 159.5 -75.5 t61.5 -169.5q0 -86 -72.5 -155t-166.5 -69q-86 0 -142.5 71t-56.5 163zM135 352q0 88 69.5 160t162.5 72q86 0 149 -76q57 -70 57 -152q0 -92 -57 -159q-66 -76 -168 -76q-80 0 -143 63q-70 70 -70 168zM219 352q0 -70 40 -105.5t101 -35.5q68 0 105 43t37 100 q0 55 -37 107.5t-92 52.5q-57 6 -105.5 -58.5t-48.5 -103.5zM231 1346q0 -43 40 -81t96 -38q57 0 89.5 43t32.5 100q0 47 -36.5 92t-85.5 39q-31 -4 -62 -6q-74 -18 -74 -149zM1012 868q0 -43 59 -43q16 0 25.5 13.5t9.5 35.5q0 27 -11.5 44.5t-31.5 13.5q-23 -4 -37 -22.5 t-14 -41.5zM1067 1014q18 -8 29 -13q68 -35 90 -98q8 -20 -4.5 -64t-38.5 -77l995 584q-47 37 -99 53t-110 16q-111 0 -256 -63q-104 -45 -289 -154q-266 -156 -317 -184zM1143 668q195 -135 389 -269q229 -143 379 -143q59 0 109.5 17.5t97.5 60.5l-738 467z" />
<glyph unicode="%" horiz-adv-x="1665" d="M14 1004q45 -8 103.5 -14.5t109.5 -6.5q39 0 87 8.5t81 12.5q-12 -63 -49 -84q-23 -12 -63 -13h-172q-43 0 -70 27t-27 70zM14 1022q16 199 117 264q156 102 651 103q469 0 627 -66q180 -76 180 -301q-6 -4 -28 -4q-10 0 -40 2t-46 2q-72 0 -149 3t-138 15 q-18 39 -47 57.5t-72 18.5v-76l119 -151l135 -369v-190h-1061v190l154 387l119 133v76q-47 0 -79 -16.5t-61 -59.5q-29 -12 -92 -22t-121 -10q-49 0 -89 4t-79 10zM557 737q0 -115 94 -184q59 -45 135 -45q115 0 185 94q45 59 45 135q0 115 -94 185q-59 45 -136 45 q-115 0 -184 -95q-45 -59 -45 -135zM592 1137l18 -78h365l18 78q-102 12 -215 12q-115 0 -186 -12zM1208 1004q92 -14 205 -15q110 1 176 15q0 -96 -114 -97h-152q-49 0 -78 19q-37 25 -37 78z" />
<glyph unicode="&#x26;" horiz-adv-x="1878" d="M35 817q0 373 265 646.5t620 273.5h36q25 -4 37 -4q348 -31 579.5 -277t231.5 -592q0 -369 -313 -645q-293 -258 -623 -258q-197 0 -329.5 78t-132.5 209q0 27 7 55.5t21 63.5q-25 43 -24 96q0 195 116 438q109 225 334 526q29 39 65 52.5t89 13.5q23 0 47 -2q2 0 41 -6 t39 -58q0 -41 -29 -122q-37 -96 -47 -127t-94 -84q-96 -61 -131 -111q-49 -68 -79 -160t-30 -135q0 -27 17 -67q4 -12 16 -37q-47 -115 -107.5 -190t-111.5 -75q-8 0 -35 11l-4 -54q0 -90 58.5 -139t199.5 -76q43 -6 51 -6q20 -2 53 -2q293 0 543 211q279 236 279 576 q0 293 -181 528q-211 276 -563 277q-225 0 -423.5 -124t-299.5 -319q-90 -174 -90 -371q0 -143 51.5 -282t155.5 -258q-2 0 -20.5 -7.5t-22.5 -7.5q-66 0 -145 123q-59 92 -80 160q-37 129 -37 258zM442 129zM522 178zM610 291q63 33 113.5 108.5t79.5 178.5 q39 -12 59.5 -48t20.5 -77q0 -74 -56.5 -141.5t-124.5 -67.5q-45 0 -92 47zM1087 1137q51 106 72 166q29 84 29 163q61 -23 78 -34q37 -29 37 -80q0 -57 -7 -90q-12 -68 -51 -107q-14 -20 -31.5 -29.5t-39.5 -9.5q-16 0 -37 5t-50 16z" />
<glyph unicode="'" d="M8 854q0 184 75 356t218 301q125 113 275.5 169.5t314.5 56.5q184 0 356 -75t301 -218q113 -125 169.5 -275.5t56.5 -314.5q0 -184 -75 -356t-218 -301q-125 -113 -275.5 -169.5t-314.5 -56.5q-184 0 -356.5 75t-301.5 218q-113 125 -169 275.5t-56 314.5zM74 856 q0 -147 51 -286.5t156 -256.5q117 -131 275.5 -199.5t330.5 -68.5q147 0 288.5 52.5t256.5 154.5q129 117 198.5 275.5t69.5 328.5q0 147 -51.5 286.5t-155.5 256.5q-119 133 -275.5 201.5t-330.5 68.5q-147 0 -286.5 -51t-256.5 -156q-133 -119 -201.5 -275.5t-68.5 -330.5 zM225 621l348 268q0 -115 48 -191q38 -61 124 -120l-405 -191q-45 29 -80 96.5t-35 137.5zM639 862q0 98 68 170q37 39 82 58.5t98 19.5q98 0 174 -70.5t76 -177.5q0 -96 -68 -168q-74 -80 -184 -80q-96 0 -168 68q-39 37 -58.5 82t-19.5 98zM725 1137l39 444q20 14 55 20.5 t76 6.5q39 0 70.5 -6.5t46.5 -20.5l57 -444q-59 31 -147 30q-49 0 -97.5 -8t-99.5 -22zM1051 578q63 41 116 131q43 72 60 141l344 -272q0 -59 -38 -121t-95 -90z" />
<glyph unicode="(" horiz-adv-x="1849" d="M10 539l76 292l-57 19v18l57 21l-76 285h115l190 -248l424 39h35q31 0 44 8t13 39q0 29 -14 86l-39 157l-229 496h76q70 0 116 -51q27 -31 56 -62l77 -96h95q33 0 52 -13t19 -30q0 -18 -21.5 -35.5t-49.5 -17.5h-37l112 -152h97q39 0 60.5 -15t21.5 -38q0 -14 -68 -37 q-10 -4 -33 -10l176 -229l344 -19q45 0 94.5 -29.5t49.5 -62.5q0 -23 -50 -51.5t-94 -28.5l-344 -20l-176 -234q33 -10 49 -16q51 -20 52 -37q0 -16 -21.5 -31.5t-56.5 -15.5l-101 4l-112 -152q23 4 33 4q12 0 24 -4q51 -16 51 -47q0 -14 -22.5 -27.5t-45 -21.5t-54.5 -8 q-18 0 -34 2t-30 6q-41 -70 -63 -104q-72 -104 -109 -105h-133l229 514q39 86 39 166q2 8 4 22.5t2 20.5q0 18 -6 35q-16 37 -29.5 43t-85.5 6l-387 19l-190 -254h-115z" />
<glyph unicode=")" horiz-adv-x="1587" d="M10 330v1040h1518v-1040h-1518zM68 444l481 367v57l-481 369v-793zM68 1313l499 -387q29 59 84.5 96t112.5 37q59 0 110.5 -31t94.5 -102l483 387h-1384zM86 387h1346l-463 367q-29 -57 -85.5 -95t-119.5 -38q-51 0 -102.5 32.5t-94.5 100.5zM989 811l481 -367v811 l-481 -387v-57z" />
<glyph unicode="*" horiz-adv-x="2304" d="M14 762q0 201 63.5 352.5t139.5 151.5q45 0 74 -39q-88 -8 -140.5 -144.5t-52.5 -310.5q0 -164 34 -272.5t106 -108.5h32q-10 -20 -32.5 -36.5t-38.5 -16.5q-66 0 -125.5 132t-59.5 292zM174 819q0 152 47 243t146 105l18 -4q102 0 350 120t293 120q289 0 561.5 -59.5 t470.5 -157.5q160 -69 160 -137q0 -29 -51 -58.5t-109 -34.5q-137 0 -295 31q-117 23 -231 45q49 -29 73.5 -69.5t24.5 -83.5q0 -49 -38 -88t-97 -48q25 -10 44.5 -43.5t19.5 -66.5q0 -39 -27 -76t-76 -49l4 -51q0 -39 -22 -66q-35 -43 -117 -57q-113 -27 -204 -41t-154 -14 q-86 0 -197 49q-182 82 -246 100l-231 21q-47 31 -82 133t-35 237z" />
<glyph unicode="+" horiz-adv-x="2252" d="M29 379v909l501 21v-82q4 0 17 -6q12 -6 18 -7q51 0 221 92.5t263 92.5q16 0 69 -19q31 -10 51.5 -13t50 -5t56.5 -2h37h178q311 0 463 -29q233 -43 233 -164t-313 -159q-119 -14 -270 -15q16 -33 16 -67q0 -39 -16 -66q41 -23 60 -56.5t19 -66.5q0 -41 -22 -69 q23 -10 44 -46t21 -77q0 -51 -32 -96q-41 -55 -131 -97q-59 -16 -113.5 -26.5t-89.5 -10.5q-84 0 -123 37q-12 12 -23 39l-100 -6q-195 0 -364.5 90t-219.5 90v-137h-192l-19 -70zM295 1214l24 -669h134v661zM530 645q6 4 9 4q12 6 26 2q25 -6 238 -108q166 -80 317 -80h35 q25 4 37 4q-45 29 -64 49q-25 27 -24 62q0 18 10 49q-55 18 -90 47q-51 43 -63 108l-107 -10q-51 0 -96 22.5t-86 45.5l18 59q31 -12 49 -16q66 -18 117 -19q55 0 110.5 22.5t90.5 69.5l-96 136l38 36q68 -61 107 -90q125 -92 197 -92q29 0 55 15.5t26 42.5q0 82 -112 192 q-121 117 -230 117q-119 0 -294 -127q-41 -29 -76 -45q-53 -27 -88 -27q-10 0 -19 2q-27 10 -35 12v-483zM1042 782q0 -27 27 -45t70 -18q100 0 240.5 70t140.5 129q0 31 -15 57q-16 -41 -76.5 -71t-125.5 -30q-33 0 -75 12.5t-75 31.5q-53 -35 -82 -72t-29 -64zM1200 608 q0 -18 22.5 -30.5t57.5 -12.5q57 0 117 25q90 43 166 78q14 6 21 30.5t7 40.5t-15 26.5t-36 6.5q-141 -31 -207 -61q-29 -14 -119 -66q-14 -8 -14 -37zM1284 453q0 -29 24.5 -45.5t65.5 -16.5q84 0 176 47.5t92 106.5q-6 14 -10 20q-14 20 -28 19q-55 -10 -142 -58 q-72 -39 -168 -39zM1294 1288l154 -196h37.5h50.5q119 0 203 3t215 15q41 0 86 19t45 42q0 33 -94.5 75t-175.5 42h-305.5h-215.5z" />
<glyph unicode="," horiz-adv-x="1282" d="M2 553q0 66 37 119t106 71q0 12 -5 35t-5 27q0 113 68 166q53 43 135 43h57q-27 82 -80 227q-94 254 -94 350q0 63 46 113.5t95 50.5q90 0 170 -145q27 -47 179 -482q63 176 98 273q115 317 240 317q51 0 84.5 -42t33.5 -113q0 -121 -80 -355q-51 -141 -69 -194 q102 -16 153 -121q43 -88 43 -217q0 -156 -43 -289q-59 -182 -186 -289q-158 -131 -412 -131q-248 0 -383 125q-145 133 -186 430q-2 10 -2 31zM86 526q0 -23 10 -43t31 -49v74l37 -21q33 -49 95.5 -101t96.5 -52q8 2 13 2q12 6 12 16q0 57 -82 168q-88 117 -143 117 q-43 0 -56.5 -23.5t-13.5 -62.5v-25zM152 342q66 -174 165 -223q76 -37 277 -37q213 0 348 135q127 127 172 367q6 23 10 58.5t4 53.5q0 158 -170 217q-106 37 -303 37l-125 6q0 -109 99 -149q74 -31 227 -31l105 6l38 -57l-77 -39q-119 -49 -198 -149.5t-79 -217.5 q0 -61 27 -120l-41 -39q-27 43 -41 69q-45 82 -60 142h-36q0 -68 -36 -106t-87 -38q-94 0 -140.5 28t-78.5 87zM242 856q0 -90 97 -231.5t169 -141.5q18 0 34.5 10.5t16.5 28.5q0 59 -96 199q-84 121 -123 153q-29 23 -53 23q-20 0 -32.5 -12.5t-12.5 -28.5zM319 1554 q0 -68 43 -192q55 -145 111 -291l158 -18q-82 248 -160 405q-47 96 -115 178q-16 -6 -26.5 -30.5t-10.5 -51.5zM594 705l57 -103l78 84zM786 1053l136 -21q2 10 108 344q41 129 41 178q0 29 -7 46.5t-26 17.5q-59 -12 -147 -262q-53 -152 -105 -303z" />
<glyph unicode="-" horiz-adv-x="2007" d="M0 160q0 37 10 57l135 250h-39q49 113 105 285q45 139 90 280q115 119 180 172q117 94 305 199l136 -94l192 211q41 41 84 41q41 0 78 -42t37 -87q0 -25 -19 -48l-198 -217q86 -55 174 -108q113 -70 188 -70l47 43l391 -18q45 -162 46 -342q0 -121 -15.5 -223.5 t-48.5 -231.5h-352l-58 117l-213 -39q-10 -2 -32 -2q-33 0 -86 8q-123 18 -148 18q-12 0 -33 -4q-70 -16 -124 -22t-111 -6q-96 0 -183 22.5t-161 42.5l-98 -116q-39 -33 -64 -48q-78 -47 -147 -47q-31 -6 -45 -6q-23 0 -23 25zM82 231l16 -18q29 0 76 25.5t47 48.5v8 q-16 20 -26 29q-31 29 -45 28q-27 -35 -41 -57q-27 -41 -27 -64zM164 487l14 -8q6 0 17 4q2 0 8 4q16 16 33.5 34.5t23.5 43.5q4 20 4 33q0 23 -6 46.5t-12 23.5zM260 487h41q70 72 117 166q37 82 76 166l391 451q-12 4 -68 30q-25 12 -41 13q-39 0 -147 -88 q-133 -109 -252 -232q-27 -27 -64 -123q-27 -74 -53 -145q25 0 42 -23.5t17 -60.5q0 -31 -15 -72t-44 -82zM395 449q0 -23 41 -41q27 -12 51 -13q27 0 45.5 12.5t22.5 41.5v24l-4 57l8 7q6 0 25.5 -19.5t27.5 -30.5l4 -38q0 -23 -11 -45.5t-11 -32.5l106 -4q113 0 201 21.5 t98 21.5q94 -18 135.5 -23.5t102.5 -5.5q70 0 142.5 12t146.5 35q10 41 16 89t6 99q0 125 -43 302h-135l-332 192q-27 -39 -57 -74q-16 -18 -59 -61q-12 -14 -15.5 -30.5t-3.5 -51.5t-3 -58.5t-15 -52.5l-80 -96l29 -4q31 0 67 14q57 23 117 47l-76 -116l-348 -25 q-55 0 -121 -41q-78 -49 -78 -112zM672 686q23 -6 39 -6q57 0 75 45q27 41 42.5 83t15.5 71zM1563 295h237q25 129 33 201.5t8 130.5q0 86 -13 155.5t-48 153.5h-197q16 -100 24.5 -178t8.5 -156q0 -90 -11.5 -157.5t-41.5 -149.5z" />
<glyph unicode="." horiz-adv-x="2150" d="M25 1174l190 329l367 78l1075 -655q35 -33 71.5 -81t69.5 -104q51 -86 141 -262q31 -59 84 -168q25 -47 41.5 -84t16.5 -55q0 -31 -43 -44t-94 -13l-707 4l-1118 674zM100 1174l76 -324l287 76l176 286l-76 291l-291 -57zM225 1116q0 8 4 29q33 109 97 168q47 43 84 43 q29 0 52 -33t19 -68q-10 -88 -66.5 -156.5t-109.5 -68.5q-27 0 -53.5 24.5t-26.5 61.5zM254 793l983 -596q37 12 69.5 46.5t63.5 67.5l-868 539zM545 907l882 -540q51 39 91 100q28 47 63 129l-903 559zM659 1446l58 -234l882 -534q16 59 17 108q0 49 -17 82zM1370 197h424 q49 0 84 34.5t35 85.5q0 11 -4 31l-234 406v-37q0 -135 -71 -258q-41 -70 -234 -262z" />
<glyph unicode="/" horiz-adv-x="2199" d="M10 621v458l248 273h1194l578 -406q51 -33 75.5 -64.5t24.5 -56.5q0 -23 -27 -47q-10 -10 -55 -43l-596 -405h-1194zM86 659l190 -235l211 235v381l-211 234l-190 -215v-400zM158 831q0 90 24.5 146.5t87.5 56.5q37 0 59.5 -64.5t22.5 -138.5q0 -66 -32.5 -126t-71.5 -60 q-37 0 -63.5 46t-26.5 140zM373 406h1059l57 190h-940zM391 1294l176 -196h903l-75 196h-1004zM567 696h922q31 43 31 133q0 88 -31 175h-922v-308zM1528 481l366 254q8 33 12.5 54.5t4.5 48.5q0 43 -17 88l-366 268q72 -190 71 -377q0 -188 -71 -336z" />
<glyph unicode="0" horiz-adv-x="2150" d="M25 502l94 387l1118 672h711q74 0 106.5 -17.5t32.5 -44.5q0 -10 -10.5 -34.5t-14.5 -37.5l-387 -673l-1093 -654l-367 76zM100 498l172 -273l291 -57l76 291l-176 286l-287 76zM225 555q0 37 27 61.5t53 24.5q55 0 115.5 -68.5t60.5 -146.5q0 -43 -21.5 -77t-49.5 -34 q-39 0 -84 41q-63 57 -97 170q-4 20 -4 29zM254 868l266 -37l869 521l-134 133zM539 754l157 -234l885 539q-18 82 -47 135q-35 63 -107 119zM659 225l940 578q16 29 17 82q0 47 -17 108l-882 -534zM1358 1493q4 -4 129 -92q94 -68 139 -150q37 -68 55 -200q6 -43 13 -121 l202 411q4 20 5 33q0 51 -34 85t-85 34h-424z" />
<glyph unicode="1" horiz-adv-x="2228" d="M29 844q0 137 87 252.5t199 115.5h406q20 -74 73.5 -117.5t112.5 -43.5q47 0 92 41t66 102q49 152 205 152q39 0 173 -48.5t204 -89.5q166 -88 260 -155q119 -85 256 -222q-127 -115 -256 -208q-115 -84 -248 -164q-59 -35 -211 -87.5t-182 -52.5q-104 0 -202.5 160 t-152.5 160q-47 0 -95 -58.5t-95 -117.5h-445q-98 0 -172.5 121t-74.5 260zM119 825q0 -82 49 -163q61 -102 147 -103h349q31 59 55 88q76 88 174 88q109 0 202 -152.5t175 -152.5q90 0 254 87t213 142v152l-228 -18q-18 -80 -61 -119t-96 -39q-63 0 -115.5 57.5 t-52.5 138.5q0 92 51 148.5t117 56.5q55 0 101 -37.5t56 -109.5l228 -21v154q0 20 -105 82q-90 53 -200 108q-29 14 -67 23.5t-62 9.5q-84 0 -148 -76q-57 -90 -72 -110q-33 -49 -88 -81t-112 -32q-70 0 -127 45q-63 51 -92 146h-312q-84 0 -158.5 -93.5t-74.5 -218.5z" />
<glyph unicode="2" horiz-adv-x="2308" d="M18 831q0 170 45 246q70 117 263 117h348q80 0 166 -124t139 -124q90 0 171 240.5t277 240.5q76 0 148 -38.5t115 -114.5q80 -141 161 -223q156 -159 379 -220q-186 -25 -344 -180q-115 -137 -230.5 -277.5t-213.5 -140.5q-162 0 -242 121q-14 20 -94 228 q-49 125 -131 125q-49 0 -127 -113t-174 -113h-387q-154 0 -211.5 83t-57.5 267zM1270 811q37 -137 139 -137q47 0 93 37t73 100l444 20l-444 37q-23 55 -68 88t-90 33q-61 0 -104 -47t-43 -131z" />
<glyph unicode="3" horiz-adv-x="1802" d="M25 510q0 82 98 143q84 53 160 54q53 0 82 -80q51 -139 94 -203q143 217 289 434q106 156 233 330t270 354q82 104 217 152q109 39 240 39l21 -76q-326 -389 -611 -778q-315 -432 -602 -893q-20 -20 -58 -30.5t-83 -10.5q-68 0 -122 16t-63 43q-59 154 -118 309 q-47 131 -47 197z" />
<glyph unicode="4" horiz-adv-x="1984" d="M10 811q0 156 88 264.5t213 108.5q63 0 109.5 -36t46.5 -89q0 -143 22 -258q33 -170 103 -170q16 0 33 8l1093 1057q27 27 76 26q72 0 121 -55q16 -20 25.5 -46t9.5 -54q0 -70 -43 -154q-33 -63 -70 -100l-1212 -1231q-61 -61 -124 -91t-124 -30q-121 0 -225 102 q-96 94 -105 191z" />
<glyph unicode="5" horiz-adv-x="1802" d="M29 139l710 692l-692 711l154 154l692 -692l692 692l152 -154l-693 -692l693 -711l-152 -153l-692 710l-711 -710z" />
<glyph unicode="6" horiz-adv-x="1802" d="M18 406l420 444l-420 424l420 422l445 -422l426 422l420 -441l-441 -424l441 -425l-441 -420l-424 420l-405 -420z" />
<glyph unicode="7" horiz-adv-x="1536" d="M25 61l571 807l-184 516q-6 14 -9 25q-8 25 -8 29q0 25 25.5 48t52.5 23q29 0 47 -18l-4 8q14 0 41 19.5t39 19.5q20 0 39 -14l176 -387l395 450l101 -26l63 38q8 -8 51 -34q35 -21 35 -37q0 -10 -41 -41q-23 -16 -43 -33l-407 -565l266 -541q0 -57 -30 -76.5t-58 -38.5 q8 -2 10 -20t2 -31q0 -20 -25.5 -41.5t-50.5 -21.5q-35 0 -57 39l-268 420l-443 -689q-25 -37 -63.5 -56t-75.5 -19q-45 0 -64.5 8t-19.5 43q-12 4 -23.5 27.5t-11.5 35.5l8 84z" />
<glyph unicode="8" horiz-adv-x="1587" d="M10 311l420 500q-154 309 -172 346q-88 188 -115 289q0 27 21.5 48.5t30.5 29.5l38 28q12 0 31 -14t33 -14q10 0 10 12q0 35 6 43q14 16 49 27l48 12l311 -463l520 541q23 18 47 18q33 0 69 -22.5t38 -34.5l12 -64q31 -12 66.5 -25t35.5 -83l-559 -654l330 -376 q4 -4 16.5 -35t12.5 -39q0 -43 -40 -99.5t-61 -56.5q-6 8 -6 15v14q0 -41 -37 -88t-63 -47q-4 0 -31 28q-8 8 -27 29q-8 -6 -63 -49q-35 -27 -53 -27q-16 0 -21 2q-18 8 -53 56l-209 286l-369 -477q-20 -20 -43 -20q-37 0 -51 96h-78q-18 20 -24 50t-27 52l-24 27 q10 16 14 25q16 29 25 36z" />
<glyph unicode="9" horiz-adv-x="1802" d="M18 559v557h578v580h578v-580h555v-557h-555v-573h-578v573h-578zM115 639h559v-557h420v557h538v401h-538v559h-420v-559h-559v-401zM190 717v248h560v559h247v-559h559v-248h-559v-559h-247v559h-560z" />
<glyph unicode=":" horiz-adv-x="1802" d="M18 539v577h560v580h573v-580h578v-577h-555v-553h-596v553h-560z" />
<glyph unicode=";" horiz-adv-x="1802" d="M29 696v287h710v713h287v-713h711v-287h-711v-710h-287v710h-710zM760 717h248v248h-248v-248z" />
<glyph unicode="&#x3c;" horiz-adv-x="1744" d="M10 559v539h578v577h534v-577h559v-539h-559v-592h-534v592h-578zM606 596h496v463h-496v-463z" />
<glyph unicode="=" horiz-adv-x="1128" d="M66 969v227h360v397h229v-397h342v-227h-342v-916h-229v916h-360z" />
<glyph unicode="&#x3e;" horiz-adv-x="1296" d="M29 1040v291h362v365h311l191 -172v-193h151l179 -176v-305h-330v-864h-268l-234 190v674h-133zM104 1059h363v-862h215v862h344v196h-362v363h-197v-363h-363v-196z" />
<glyph unicode="?" horiz-adv-x="1239" d="M10 831v482h324v362h483v-362h348v-482h-348v-845h-465v845h-342zM68 907h342v-846h350v846h323v330h-344v362h-329v-362h-342v-330zM143 965v190h324v387h215v-387h326v-190h-306v-846h-215v846h-344z" />
<glyph unicode="@" horiz-adv-x="1320" d="M10 387v887h76l8 -98q29 -115 117 -187q125 -100 356 -100q0 193 -86 321q-106 160 -319 160v76h903v-76q-45 0 -98 -16q-113 -35 -185 -125q-100 -127 -100 -340q240 0 371 100.5t131 284.5h76v-887h-76q-14 49 -27 100q-45 117 -137 187q-129 100 -338 100 q0 -233 121 -366q109 -121 280 -136v-57h-901v57q127 0 256 174.5t129 327.5q-168 0 -305 -84q-176 -109 -176 -303h-76z" />
<glyph unicode="A" horiz-adv-x="1640" d="M25 387l247 444l-247 443h495l273 440l266 -440h502l-248 -443l268 -444h-522l-248 -440l-272 440h-514zM197 1174l151 -228l133 228h-284zM215 502h248l-115 215zM406 831l196 -329h402l194 329l-194 343h-402zM659 1274h267l-133 250zM678 387l133 -229l135 229h-268z M1116 502h273l-134 215zM1116 1174l139 -248l134 248h-273z" />
<glyph unicode="B" horiz-adv-x="1826" d="M10 803q0 74 59.5 137.5t141.5 63.5h33q51 -8 395 -103q119 -33 201 -33q-27 156 -82 357q-27 92 -51 184q-8 35 -15 72q0 88 62.5 148.5t138.5 60.5q72 0 124 -52.5t52 -152.5v-39q-68 -289 -133 -578q152 29 303 60q100 23 256 76h43q94 0 151.5 -61.5t57.5 -139.5 q0 -80 -52.5 -136.5t-148.5 -56.5q-8 0 -32.5 4t-38.5 7q-270 66 -539 133q25 -160 72 -302.5t61 -197.5q2 -14 6 -47t4 -45q0 -102 -59 -162.5t-137 -60.5q-74 0 -123 55q-57 63 -58 174l5 65q14 57 79 293q29 98 54 228q-131 0 -286 -44t-310 -89q-113 0 -173.5 55 t-60.5 127z" />
<glyph unicode="C" horiz-adv-x="1849" d="M18 821q0 92 62 164q70 80 174 80l61 -6q47 -8 226 -141q72 -53 161 -54l37 4q25 63 63 89t72 26q0 143 -83 246q-106 131 -127 198q-8 31 -15 62q0 92 78 153.5t176 61.5q96 0 162 -57q76 -68 76 -187v-33q0 -43 -104.5 -178t-104.5 -266q47 0 83 -28.5t50 -86.5l22 -4 q70 0 156 51q113 72 227 144q16 6 46 10t45 4q102 0 161 -78q54 -70 54 -174q0 -102 -56 -174q-61 -80 -164 -80q-23 0 -42 6.5t-63 23.5t-169 130q-94 84 -217 84q0 -39 -31 -80q-41 -53 -102 -53q0 -119 59 -195q145 -186 150 -229l4 -57q0 -104 -70.5 -167t-163.5 -63 q-92 0 -157 60q-76 70 -76 188l4 39q0 61 96 172t96 205v47q-59 0 -97 38t-38 95q-145 0 -247 -109q-113 -119 -158 -124l-58 -5q-123 0 -190.5 74t-67.5 174z" />
<glyph unicode="D" d="M14 836q0 129 74 219q82 100 223 100h37q104 0 240.5 -138t199.5 -138q18 0 43 10q0 106 -86 205q-186 211 -186 290l4 25q16 147 113 227q86 72 207 72q127 0 225 -74q109 -82 109 -207v-24q0 -111 -138.5 -271.5t-138.5 -228.5l6 -14q61 0 235.5 133t264.5 133 q156 0 242 -98q77 -88 77 -217q0 -127 -71 -222q-78 -104 -209 -116l-25 -6q-119 0 -279.5 148.5t-240.5 148.5h-14l-4 -19q0 -84 145 -233.5t145 -257.5q0 -45 -14 -86q-37 -121 -133 -191q-88 -63 -191 -63q-127 0 -215 88q-96 96 -96 260q29 166 156 272q113 94 112 230 q-59 0 -227 -145.5t-274 -145.5q-143 0 -234 106q-82 96 -82 228z" />
<glyph unicode="E" d="M14 846q0 59 42 101t120 42h37.5t40.5 -6q0 78 44 120t103 42q63 0 117.5 -44t54.5 -108q0 -33 -11 -62.5t-42 -62.5h330l18 326q-74 -49 -123 -49q-66 0 -109.5 56t-43.5 126q0 63 42 110.5t120 47.5q-6 20 -12.5 43.5t-6.5 42.5q0 70 49.5 108.5t112.5 38.5t115.5 -40 t52.5 -97q0 -29 -25 -78q88 -20 136 -73q41 -47 41 -107q0 -66 -49.5 -117t-123.5 -51q-51 0 -118 39l20 -326h309q-14 31 -26 63t-12 52q0 70 54 114t124 44q63 0 114.5 -42t51.5 -116q41 10 71 10q68 0 106 -46t38 -107q0 -63 -40 -114.5t-104 -51.5q-33 0 -71 22 q-6 -51 -52.5 -77.5t-105.5 -26.5q-51 0 -100.5 15.5t-65.5 31.5q-25 25 -25 57q0 29 21 72q8 16 22 43l-309 -18l-20 -312q37 16 67.5 22.5t61.5 6.5q70 0 108.5 -45t38.5 -107q0 -63 -39 -115.5t-104 -52.5l-19 7q10 -25 14.5 -52.5t4.5 -48.5q0 -66 -46 -100.5 t-110 -34.5q-68 0 -118 41t-50 113q0 10 4 28.5t15 53.5l-37 -7q-57 0 -93 48.5t-36 109.5q0 63 38 110.5t109 47.5q41 0 65.5 -5t49.5 -20v312l-330 18q27 -31 40 -63.5t13 -65.5q0 -68 -57 -117t-125 -49q-61 0 -106 43q-51 49 -52 137q-18 -6 -39.5 -12t-35.5 -6 q-61 0 -102.5 51t-41.5 117z" />
<glyph unicode="F" d="M4 840q0 8 51 30q63 29 178 76q135 29 361.5 281t255.5 430q20 65 46 65h1q16 0 28.5 -21.5t20.5 -62.5q84 -283 273 -469q180 -178 477 -280q47 -14 70.5 -31t23.5 -27q0 -12 -40 -24t-54 -14q-178 -63 -277 -121q-154 -88 -268 -226q-135 -162 -225 -403 q-6 -31 -20.5 -56.5t-26.5 -25.5t-24.5 23.5t-23.5 76.5q-74 250 -270 447q-207 205 -500 303q-29 16 -38 20q-6 2 -19 9z" />
<glyph unicode="G" d="M10 811v57q209 0 486 250q305 276 358 596h57q98 -326 340 -559q236 -227 529 -287v-57q-197 -74 -324 -147q-186 -109 -311 -263q-154 -186 -234 -454h-57q-27 193 -205 401q-145 170 -356 316q-184 127 -283 147zM143 831q201 -37 303 -67q156 -47 275 -125 q47 -94 82 -211l90 -328q33 178 81 338t91 221q59 39 223 93q200 65 354 79q-150 0 -356.5 72t-220.5 119q-86 127 -129 328q-29 141 -43 211q-33 -135 -66 -271q-51 -176 -125 -286q-90 -63 -258 -109q-72 -18 -301 -64z" />
<glyph unicode="H" horiz-adv-x="1959" d="M29 1079h710l211 635l209 -635h735l-577 -440l211 -692l-578 420l-577 -439l233 711z" />
<glyph unicode="I" horiz-adv-x="1959" d="M29 1079l673 37l248 598l252 -598l692 -37l-538 -483l172 -668l-578 383l-577 -383l151 668zM162 1022l520 -363l-215 -598l483 420l502 -438l-250 616l535 363l-635 -39l-152 598l-153 -598z" />
<glyph unicode="J" horiz-adv-x="1884" d="M14 807q0 172 64.5 334t190.5 291t294 197.5t342 68.5q172 0 334 -64.5t292 -192.5t198.5 -293t68.5 -341q0 -172 -64.5 -333t-191.5 -290q-129 -131 -295 -199.5t-342 -68.5q-174 0 -333.5 64.5t-289.5 190.5t-199 294t-69 342zM143 1059l463 -324l-196 -559l501 344 l463 -344l-172 559l459 324h-559l-191 540l-190 -540h-578z" />
<glyph unicode="K" horiz-adv-x="2013" d="M10 1022l729 -39l193 731l233 -731l768 39l-653 -383l287 -711l-617 478l-598 -478l273 711zM696 745q0 -96 61.5 -172.5t160.5 -76.5l32 6l33 -6q104 0 161.5 69.5t57.5 169.5q0 92 -67 166q-76 82 -185 82q-123 0 -192 -76q-61 -66 -62 -162z" />
<glyph unicode="L" horiz-adv-x="1984" d="M10 1059l692 39l267 616l254 -616l692 -39l-541 -438l172 -674l-577 364l-578 -364l154 674zM162 1022l520 -344v-14l6 67q0 63 21 119q29 76 88 115zM487 61l463 402q-76 0 -140.5 44t-107.5 132zM817 983q72 43 158 43q84 0 127 -43l-133 578zM989 463l481 -420 l-229 596q-57 -96 -127 -139q-59 -37 -125 -37zM1141 965q63 -45 91 -108.5t28 -178.5l516 344z" />
<glyph unicode="M" horiz-adv-x="1884" d="M0 1022q0 14 20.5 25.5t61.5 11.5l577 57l191 483q37 86 68 87q14 0 32.5 -25t32.5 -62l197 -483l534 -57q51 0 78 -13.5t27 -33.5t-27 -45t-59 -41l-381 -287l133 -614l4 -58q0 -35 -19 -35q-20 0 -71 39q-39 29 -68 54l-405 286l-445 -286q-74 -68 -123 -68 q-25 0 -24 33q0 12 5 33.5t9 37.5l133 578l-399 307q-35 14 -58.5 36t-23.5 40zM272 946l367 -250l-137 -499l424 266l387 -287l-115 502l344 268l-444 19l-191 444l-172 -426zM524 889h269l114 285l115 -285h272l-215 -193l119 -329l-291 211l-286 -211l114 329z" />
<glyph unicode="N" horiz-adv-x="1906" d="M25 1022q0 10 8 18q20 18 71 19l578 57l192 483q35 86 66 87q35 0 68 -87l194 -483l535 -57q53 0 79.5 -13.5t26.5 -33.5t-26.5 -45t-59.5 -41l-383 -287l135 -614l9 -64q0 -29 -23 -29q-18 0 -69.5 39t-69.5 54l-406 286l-444 -286q-88 -72 -125 -72q-8 0 -14 10 q-8 12 -9 27q0 12 5.5 33.5t9.5 37.5l133 578l-402 307q-33 14 -56 36t-23 40zM297 946l367 -250l-140 -499l426 266l387 -287l-114 502l344 268l-445 19l-190 444l-172 -426zM549 889h268l115 285l112 -285h273l-215 -193l121 -329l-291 211l-287 -211l115 329z" />
<glyph unicode="O" horiz-adv-x="1959" d="M29 1040h692l248 693l233 -693h692l-538 -401l268 -711l-655 459l-617 -459l236 711zM219 965l445 -306l268 95zM506 119l463 325v291zM778 1004l191 -230v750zM989 774l692 209h-522zM1008 735l481 -616l-209 540z" />
<glyph unicode="P" horiz-adv-x="2203" d="M25 1116h692l209 635l329 -55l191 -580h541l133 -57l-539 -381l234 -674l-330 21l-369 266l-438 -324l-330 76l215 635zM215 1059l444 -342l-215 -578l521 381l481 -401l-191 598l478 342h-596l-172 559l-191 -559h-559z" />
<glyph unicode="Q" horiz-adv-x="1744" d="M10 559l457 272l-457 267l209 329l445 -290l-19 538h399l-18 -538l463 309l192 -330l-458 -285l458 -272l-192 -326l-463 269l18 -535h-399l19 535l-445 -287z" />
<glyph unicode="R" horiz-adv-x="1744" d="M29 520l516 311l157 -253l-520 -306zM29 1155l153 234l520 -310l-157 -248zM702 -14v592h287v-592h-287zM702 1079v596h287v-596h-287zM989 578l152 253l520 -311l-172 -248zM989 1079l520 310l133 -252l-501 -306z" />
<glyph unicode="S" horiz-adv-x="1744" d="M29 774v133l749 -39l-577 541l114 57l502 -540l-20 749h114l-37 -749l539 540l76 -77l-578 -521l770 39v-133l-749 19l557 -502l-94 -94l-502 538l18 -749h-114l20 768l-502 -557l-96 75l541 521z" />
<glyph unicode="T" d="M4 825q0 10 37 23.5t88 19.5l559 58l-387 444q-57 57 -57 76q14 10 18 10q45 0 78 -29l463 -387l37 521q8 78 18 112.5t25 34.5q12 0 23.5 -25.5t11.5 -64.5l57 -596l481 424q16 14 31.5 19t30.5 5q14 0 14 -18q0 -25 -19 -43l-426 -483l580 -58h7q116 0 116 -32 q0 -25 -123 -25l-580 -57l388 -463q25 -25 39 -47.5t14 -32.5q-6 -4 -8 -6q-12 -8 -17 -8q-16 0 -41 16q-12 8 -24 20l-463 388l-39 -578q0 -43 -10 -81t-29 -38q-14 0 -25.5 33t-11.5 86l-57 596l-445 -385q-57 -57 -86 -57q-4 2 -6 2q-8 4 -8 12q0 29 43 80l387 463 l-559 39q-55 0 -90 11t-35 21z" />
<glyph unicode="U" d="M10 811v39l539 115l-291 501l39 19l442 -291l154 520h39l112 -502l484 273l39 -19l-307 -462l520 -136v-37l-500 -114l266 -484l-37 -18l-444 266l-133 -534h-39l-115 516l-481 -287l-39 39l291 463zM162 831l444 -96l230 96h-674zM352 272l426 287l76 215zM391 1331 l234 -348l229 -94zM797 1137l96 -230v654zM911 100l115 439l-115 215v-654zM950 907l424 424l-330 -194zM969 793l483 -482l-250 385zM989 850h653l-419 115z" />
<glyph unicode="V" horiz-adv-x="1640" d="M4 395q0 14 24.5 42t53.5 44l399 350l-399 343q-72 63 -72 81l15 5q16 0 62 -11.5t52 -11.5l482 -158l114 539q10 59 20.5 81.5t18.5 22.5q6 0 18.5 -30.5t18.5 -73.5l96 -539l520 176q16 4 51 11.5t46 7.5q4 0 14 -10l4 -4q0 -29 -76 -86l-407 -343l407 -368 q95 -66 95 -86l-15 -4q-16 0 -56 13t-63 20l-520 172l-114 -592q0 -14 -8.5 -30.5t-20.5 -16.5q-23 0 -29 47l-114 592l-502 -172q-63 -25 -86 -25q-29 0 -29 14z" />
<glyph unicode="W" horiz-adv-x="1830" d="M18 492q0 8 25 32.5t61 53.5l402 272l-381 266q-61 37 -72 43q-35 25 -35 35q6 4 11 4q12 4 28 4l125 -8l443 -78l-101 502q0 14 -4 32.5t-4 24.5q0 29 14 29q29 0 95 -86l249 -381l267 362q29 31 47 50q43 41 57 41q4 -6 4 -9q6 -14 6 -20q0 -29 -14 -80l-119 -465 l502 78q39 6 63.5 10t41.5 4q10 0 20 -10q0 -2 2 -4q0 -6 -20.5 -24.5t-49.5 -32.5l-401 -306l401 -292q76 -47 76 -72q-4 -4 -8 -6q-14 -8 -27 -8q-20 0 -64 9t-91 19l-445 97l119 -517q14 -41 14 -65q0 -20 -18 -21q-31 0 -96 86l-267 383l-249 -362q-41 -57 -69 -86 t-36 -29q-4 6 -4 8q-6 14 -6 21q0 18 5 49t9 55l82 459l-444 -57q-25 -4 -66 -12.5t-53 -8.5q-8 0 -16 4q-2 0 -9 7z" />
<glyph unicode="X" d="M29 1237l538 -43l-22 539l348 -402l367 402l-37 -539l553 61l-439 -366l420 -369l-534 39l37 -555l-367 402l-369 -402l43 555l-520 -39l402 369z" />
<glyph unicode="Y" horiz-adv-x="1935" d="M25 850l456 115l-305 348l426 -101l-100 445l309 -344l115 438l133 -438l350 325l-135 -444l459 119l-344 -330l462 -133l-462 -133l344 -311l-439 96l133 -441l-368 345l-133 -459l-115 459l-330 -345l121 441l-444 -115l323 330z" />
<glyph unicode="Z" horiz-adv-x="1744" d="M10 793v96h596l-559 227l39 96l559 -229l-444 444l75 76l445 -463l-254 578l100 39l230 -578v617h96v-617l209 578l100 -39l-233 -578l444 463l76 -76l-463 -462l578 272l38 -100l-577 -248h616v-96h-616l577 -234l-38 -96l-578 254l463 -426l-76 -94l-444 462l233 -559 l-80 -57l-229 578v-617h-96v617l-230 -578l-100 39l235 577l-426 -462l-75 75l424 445l-557 -236l-39 97l577 215h-596z" />
<glyph unicode="[" horiz-adv-x="1693" d="M25 1212q0 59 45 106.5t112 47.5q43 0 89 -21.5t87 -70.5l234 -291l-387 76q-86 14 -133 57t-47 96zM57 467q0 55 43 103t125 69l367 78l-252 -311q-80 -76 -150 -76q-55 0 -94 41t-39 96zM606 864q0 86 58.5 133t142.5 47q80 0 142.5 -49t62.5 -131v-14q0 -92 -60 -148 q-49 -45 -131 -63q-78 0 -141 55q-70 61 -70 156zM668 1595q0 68 42 108t97 40q57 0 100 -43t43 -115q0 -41 -14 -82l-115 -387l-133 387q-14 45 -14 49q-6 25 -6 43zM674 143q0 20 14 66.5t19 62.5l114 306l115 -363q6 -16 10 -48t4 -48q0 -68 -44 -108t-99 -40t-94 45 t-39 127zM1051 717l405 -78q72 -16 105.5 -57t33.5 -90q0 -61 -50 -113.5t-113 -52.5q-82 0 -148 98zM1051 983l252 291q33 49 76.5 74.5t80.5 25.5q59 0 104.5 -51.5t45.5 -110.5q0 -55 -42 -97t-130 -56z" />
<glyph unicode="\" horiz-adv-x="1669" d="M29 1223q0 68 50 120t122 52q49 0 99 -30t91 -91q37 -70 92 -119q63 -57 123 -57q25 0 53.5 17.5t55.5 33.5q20 25 20 63q0 35 -7 64t-26 76q-53 117 -53 200q0 92 47 141.5t111 49.5q63 0 110.5 -58.5t47.5 -156.5q0 -41 -23 -103q-8 -23 -31 -73q-12 -29 -20 -72 t-8 -63q0 -37 11 -64t38 -37q29 -29 61 -29q59 0 148 76q70 61 100 111q49 59 98.5 87t92.5 28q63 0 103 -51.5t40 -120.5q0 -78 -53 -132q-63 -63 -185 -63q-145 0 -204 -39q-49 -33 -50 -94l-4 -25q0 -94 121 -135q160 -35 232 -51q78 -23 118 -76q35 -45 35 -100 q0 -59 -47 -106.5t-115 -47.5q-29 0 -65.5 15.5t-77.5 42.5q-106 111 -172 174q-72 70 -119 69q-23 0 -39 -10q-76 -47 -76 -115q0 -23 13 -65q39 -137 45 -168q14 -76 14 -123q0 -86 -44 -134t-99 -48q-63 0 -110.5 54t-47.5 150q0 27 4 47.5t15 53.5q20 51 38.5 111.5 t18.5 99.5q0 35 -13.5 68.5t-42 49t-69.5 15.5q-57 0 -127 -76q-59 -68 -117 -135q-90 -90 -176 -90q-59 0 -101 46t-42 112q0 68 52 126t155 78q90 12 180 25q104 31 104 119v49q0 78 -166 117q-80 16 -160.5 36.5t-124.5 71.5t-44 109zM621 850q0 -78 53 -125t123 -47 q80 0 136 56.5t56 154.5q0 76 -54 119t-128 43q-72 0 -127 -42t-55 -120z" />
<glyph unicode="]" horiz-adv-x="1587" d="M29 516q0 170 223 217q350 76 444 135q-70 41 -301 74q-367 53 -366 281q0 55 65.5 110.5t124.5 55.5q106 0 205 -115q266 -309 311 -328v15q0 68 -78.5 266t-78.5 291q0 66 57 102.5t135 36.5t134.5 -35t56.5 -94q0 -68 -75 -262.5t-75 -319.5q23 8 299 328 q109 125 213 125q70 0 123 -33q68 -43 78 -121q2 -12 2 -35q0 -176 -375 -252q-246 -49 -320 -90q61 -39 306 -82q391 -69 391 -290q0 -57 -76 -109.5t-139 -52.5q-102 0 -207 121q-287 334 -295 338q0 -102 77 -309.5t77 -286.5q0 -68 -53.5 -104t-131.5 -36 q-82 0 -144.5 39t-62.5 105q0 86 81 289.5t81 302.5q-6 -2 -305 -328q-115 -125 -219 -125q-57 0 -119.5 60.5t-62.5 115.5z" />
<glyph unicode="^" horiz-adv-x="1640" d="M0 502q0 221 186 289q51 18 402 59q-393 59 -412 65q-176 63 -176 287q0 78 90 144.5t168 66.5q127 0 252 -158q172 -219 192 -233q-66 125 -104 203q-74 145 -74 241q0 92 70 183q80 102 184 102q102 0 180 -98q72 -90 72 -183q0 -90 -67 -251q-27 -63 -89 -197 q49 43 144 176q147 205 280 205q10 0 35 2t39 2q66 0 101 -27q51 -39 73 -143q6 -25 6 -47q0 -117 -153 -201q-137 -74 -430 -139q172 -25 346 -49q246 -65 246 -266q0 -84 -91.5 -152t-175.5 -68q-94 0 -190 91q-84 78 -211 272q49 -127 100 -254q43 -117 43 -184 q0 -78 -53 -141.5t-186 -131.5q-141 55 -201.5 119t-60.5 147q0 80 67 248q39 98 80 197q-203 -252 -213 -262q-106 -111 -211 -111q-139 0 -198.5 48t-59.5 149zM82 502q0 -39 50 -75t97 -36q121 0 289 170q92 107 184 213l-20 37q-244 -29 -369 -61q-231 -61 -231 -248z M616 1452q0 -88 52 -238q45 -125 92 -249h37q96 252 114 317q29 102 29 174q0 84 -43 151.5t-119 67.5q-74 0 -118 -69.5t-44 -153.5zM729 850q0 -16 8 -31q16 -29 51 -28q16 0 31 8q29 16 29 51q0 17 -8 31q-16 29 -52 28q-16 0 -30 -8q-29 -16 -29 -51zM874 774 q25 -27 152 -168q88 -100 150 -147q84 -66 151 -66q37 0 83 41t58 92q4 25 5 33q0 123 -314 195q-133 29 -266 57z" />
<glyph unicode="_" horiz-adv-x="1935" d="M10 1004q0 131 95.5 243.5t228.5 112.5q92 0 182 -53q102 -61 201 -191q-68 68 -103.5 147.5t-35.5 159.5q0 129 101 228.5t239 99.5q143 0 252.5 -93t109.5 -220q0 -76 -31.5 -162t-89.5 -160q66 106 169.5 165.5t209.5 59.5q152 0 244 -110q84 -102 84 -246 q0 -143 -82 -237q-94 -109 -260 -109q-92 0 -211 57q135 -37 239.5 -153.5t104.5 -245.5q0 -117 -135.5 -226.5t-261.5 -109.5q-156 0 -246 125q-78 109 -78 262q0 16 5 44t5 32q0 -221 -119 -348q-106 -115 -254 -115q-133 0 -236.5 113.5t-103.5 269.5q0 117 76 207 q86 102 254 145q-72 -23 -116 -33t-89 -10q-156 0 -256 109q-92 100 -92 242zM639 811q0 -137 86 -217q80 -74 201 -74q109 0 194 74q97 84 97 217q0 135 -91 211q-78 66 -190 65q-117 0 -207 -74.5t-90 -201.5z" />
<glyph unicode="`" horiz-adv-x="1931" d="M14 950q0 33 4 49q27 145 84 209q76 86 238 86q76 0 162 -32.5t180 -106.5q-51 141 -51 248q0 162 102 262q88 86 199 86q109 0 198 -72q115 -92 115 -262q0 -59 -15.5 -129.5t-45.5 -150.5q72 76 163 116.5t181 40.5q127 0 219 -84q104 -93 104 -249q0 -123 -92 -216 q-100 -100 -260 -100q-39 0 -61.5 2t-63.5 12q96 -94 193 -188q76 -100 75 -195q0 -98 -111.5 -213.5t-221.5 -115.5q-141 0 -250 129t-109 311q-29 -186 -139.5 -313t-243.5 -127q-104 0 -209 100q-111 106 -110 236q0 98 64.5 199.5t193.5 176.5l-53 -6q-150 0 -279 70 q-160 86 -160 227zM160 956q0 -94 127 -172q109 -68 200 -67q162 0 162 71q0 27 -114.5 78.5t-114.5 73.5q96 8 143 12q144 17 144 31q0 27 -24 60.5t-58 54.5q-63 39 -123 60.5t-115 21.5q-80 0 -135 -42t-86 -143q-6 -23 -6 -39zM391 330q0 -78 58 -146q68 -80 167 -80 q76 0 146 52q78 57 112 155q23 64 23 113q0 82 -57 82q-31 0 -112 -79t-93 -79q-18 0 -19 25q0 31 45.5 114.5t45.5 104.5q0 23 -14.5 35t-39.5 12q-74 0 -153 -66q-109 -90 -109 -243zM707 1341q0 -104 39.5 -193t78.5 -89q23 0 37.5 158.5t63.5 148.5q27 -6 63.5 -151.5 t50.5 -145.5q47 0 79 80t32 168q0 94 -59 174q-66 90 -160 90q-92 0 -158.5 -74.5t-66.5 -165.5zM993 453q0 -88 97.5 -213t189.5 -125q86 0 150.5 62.5t64.5 148.5q0 78 -107.5 191.5t-179.5 113.5q-20 0 -34.5 -12.5t-14.5 -30.5q0 -29 62.5 -122t62.5 -114q0 -23 -24 -22 q-16 0 -112.5 88t-125.5 88t-29 -53zM1155 1004q0 -31 148.5 -39.5t148.5 -28.5q0 -23 -112.5 -70t-112.5 -84q0 -23 38 -35t99 -12q129 0 221 49q115 62 115 177q0 74 -68 137q-76 72 -186 71q-100 0 -201 -65q-90 -59 -90 -100z" />
<glyph unicode="a" d="M18 840q0 86 58.5 160.5t177.5 115.5q-29 41 -43 85t-14 83q0 104 82.5 179t187.5 75q49 0 90 -11t82 -42l-4 14q0 102 82 162.5t186 60.5q100 0 176 -56t76 -153v-28q96 47 182 47q115 0 193 -88q69 -79 69 -181q0 -50 -13 -92.5t-44 -72.5q113 -18 174 -94 q56 -70 56 -164t-61.5 -177t-168.5 -104q27 -39 40 -86t13 -86q0 -104 -87 -181t-199 -77q-41 0 -78 11.5t-76 35.5q0 -104 -84 -172q-76 -61 -178 -61q-92 0 -166 55q-84 63 -106 178q-74 -51 -158 -51q-106 0 -184 82t-78 188q0 88 53 164q-100 25 -168 107t-68 174z M96 840q0 -94 53.5 -140.5t141.5 -46.5q76 0 164 35t147 86q-80 -31 -156.5 -54.5t-126.5 -23.5q-70 0 -112.5 41t-42.5 97q0 55 42 93t124 38q53 0 126.5 -16.5t145.5 -41.5q-68 49 -158 84t-161 35q-76 0 -131.5 -60.5t-55.5 -125.5zM268 395q0 -92 99 -162 q20 -12 48.5 -24t51.5 -12q80 0 147 75q87 97 140 306q-90 -150 -138 -207q-90 -113 -163 -113q-33 0 -73 42t-40 81q0 80 89 167t210 130q-172 -23 -277 -111q-94 -78 -94 -172zM276 1266q0 -82 76 -152q92 -84 287 -131q-160 78 -233 158q-66 70 -66 133q0 51 44 86t93 35 q66 0 130.5 -68.5t146.5 -228.5q-37 199 -117 295q-70 82 -160 82q-86 0 -125 -23q-76 -45 -76 -186zM678 850q0 -113 60.5 -183.5t150.5 -70.5q88 0 157.5 71.5t69.5 182.5q0 86 -69.5 143.5t-157.5 57.5q-80 0 -135 -47q-66 -55 -76 -154zM755 77q48 -52 152 -52 q94 0 135 50t41 130q0 76 -34 178q-23 68 -66 156q39 -172 39 -267q0 -100 -37 -141q-27 -31 -78 -31q-78 0 -110.5 38t-32.5 106q0 57 23.5 165.5t23.5 129.5q-41 -66 -70 -148q-34 -95 -34 -172q0 -90 48 -142zM717 1442q0 -66 27.5 -141.5t86.5 -163.5 q-20 78 -36.5 154.5t-16.5 121.5q0 76 32 122t97 46q61 0 90 -46t29 -122q0 -59 -17.5 -136t-43.5 -140q35 14 78.5 119.5t43.5 199.5q0 86 -36 137q-47 63 -144 64q-80 0 -135 -59.5t-55 -155.5zM1059 578q0 -98 69 -226q83 -151 188 -151h1q68 0 125 41q76 53 76 153 q0 96 -80 168q-102 92 -301 115q152 -84 211 -121q104 -63 104 -131q0 -86 -49 -129q-39 -35 -90 -35q-72 0 -148 115q-25 39 -106 201zM1059 1098q76 143 133 220t125 77q43 0 91 -50.5t48 -89.5q0 -76 -117 -155q-92 -59 -184 -117q174 29 275.5 109t101.5 174 q0 43 -21.5 86t-64.5 75q-20 12 -50 22.5t-63 10.5q-94 0 -162 -74q-86 -94 -112 -288zM1198 754q72 -53 154 -86t151 -33q92 0 148 51q63 58 63 164q-14 74 -61 121q-55 55 -140 55q-57 0 -136 -28.5t-179 -90.5q92 18 137 25q84 14 131 14q72 0 112 -26.5t40 -88.5v-24 q0 -57 -39 -84t-104 -27q-59 0 -172 29q-74 20 -105 29z" />
<glyph unicode="b" horiz-adv-x="1878" d="M14 834q0 100 20.5 193t67.5 192q113 236 331 370.5t472 134.5q100 0 193.5 -20.5t191.5 -67.5q236 -113 372 -332t136 -470q0 -199 -88 -383q-113 -236 -334 -372t-473 -136q-199 0 -383 88q-236 113 -371 331t-135 472zM72 850l362 -154q-26 79 -26 156v6q0 74 26 146z M301 233l367 173q-74 31 -130.5 85t-84.5 130zM319 1466l134 -387q41 70 100 131q52 54 115 103zM483 864q0 -88 37 -173t109 -144q57 -49 126.5 -73.5t143.5 -24.5q90 0 174.5 36.5t145.5 108.5q51 59 75.5 126.5t24.5 143.5q0 90 -38 174t-107 144q-57 49 -127 74.5 t-146 25.5q-88 0 -173 -37t-144 -108q-49 -57 -75 -127t-26 -146zM745 387l152 -383l154 383q-55 -31 -138 -31q-78 0 -168 31zM745 1331q66 14 144 15q51 0 78 -2.5t84 -12.5l-154 365zM1126 406l349 -152l-134 367q-43 -76 -105 -138.5t-110 -76.5zM1126 1313 q127 -88 215 -234l154 367zM1380 696l324 154l-324 154q12 -74 13 -154q0 -80 -13 -154z" />
<glyph unicode="c" horiz-adv-x="1669" d="M14 1165q0 90 37 156q53 94 166 94q20 0 31 -2q123 -12 266 -168q109 -121 217 -241q-82 168 -117.5 288.5t-35.5 206.5q0 127 64.5 193.5t156.5 66.5t155 -61q72 -70 72 -185q0 -100 -57 -264q-43 -123 -86 -245q68 59 194 206q182 213 289 213q123 0 184 -82 q49 -66 49 -161q0 -207 -348 -279q-137 -27 -272 -51q334 -57 395 -78q193 -65 236 -217q10 -37 10 -68q0 -82 -49 -131q-61 -59 -187 -59q-129 0 -294 174q-164 201 -207 246q74 -182 100 -264q47 -143 47 -234q0 -141 -63 -215q-54 -65 -143 -65h-3q-94 0 -166 69 q-77 75 -77 190q0 101 53 259q23 66 100 260q-113 -139 -223 -279q-140 -155 -253 -155h-1q-147 0 -201 65q-35 43 -35 139v43q0 117 88 181q70 49 235 79.5t333 59.5q-248 43 -316 59q-168 39 -245 90q-98 63 -99 166zM115 1083q41 -43 114 -79q109 -51 224 -68 q74 -10 221 -10l-578 348q-28 -42 -28 -85q0 -56 47 -106zM115 444q45 -82 114 -82q113 0 285 191q137 150 178 240zM659 1501q0 -27 4.5 -59.5t10.5 -71.5q27 -113 73.5 -224t77.5 -142v671q-90 0 -128 -46t-38 -128zM807 25q78 0 112.5 47t34.5 129q0 119 -52 296t-95 220 v-692zM922 926l577 348q-27 82 -104 82q-39 0 -92 -27q-41 -25 -62 -35q-113 -61 -194 -168q-41 -51 -125 -200zM940 811l578 -348q14 35 14 72q0 43 -35 79q-12 12 -151 103q-82 51 -218 71q-94 10 -188 23z" />
<glyph unicode="d" horiz-adv-x="1587" d="M10 1255l58 97l229 -140l18 234h95l-19 -309l330 -191v385l-254 172l39 78l215 -135v268h96v-268l209 135l39 -78l-248 -172v-385l324 191v309h100v-252l248 158l39 -97l-230 -139l211 -133l-39 -76l-286 152l-330 -209l348 -191l250 134l57 -76l-211 -121l230 -152 l-58 -77l-229 153v-248h-100v306l-324 196v-368l248 -209l-57 -78l-191 153v-268h-96v268l-215 -153l-39 96l254 191v368l-330 -196v-324h-94v248l-229 -135l-39 96l229 133l-229 121l57 76l266 -134l330 191l-348 209l-266 -152l-39 97l211 112z" />
<glyph unicode="e" horiz-adv-x="1611" d="M14 502l326 176l-307 190l307 191l-326 153q35 37 52 72q8 18 24 68l305 -197v369l330 -172l-18 362q27 -14 67 -14q45 0 86 14l-20 -362l329 172v-369l306 215q23 -63 35 -82.5t42 -50.5l-325 -178l305 -191l-305 -190l325 -197q-23 -20 -30 -37q-4 -6 -27 -77l-326 192 v-362l-329 170l20 -363q-29 14 -72 14q-41 0 -81 -14l18 363l-330 -170v362l-305 -192q-16 49 -30.5 76.5t-45.5 58.5zM168 868l248 -151l252 151l-252 154zM473 311l252 133v330l-252 -153v-310zM473 1098l252 -152v328l-252 153v-329zM840 444l247 -133v285l-247 178v-330 zM840 946l247 152v311l-247 -135v-328zM897 868l272 -151l248 151l-248 136z" />
<glyph unicode="f" horiz-adv-x="1587" d="M10 444l230 134l-230 81l37 134l402 -76l233 133l-252 154l-383 -97l-37 152l209 57l-190 139l39 76l190 -137l-39 252l133 20l135 -387l234 -172v305l-272 312l100 94l172 -152l-19 248h115l-20 -248l192 172l76 -114l-268 -312v-305l268 152l119 407l133 -39l-57 -233 l229 119l39 -58l-230 -139l230 -57l-39 -152l-387 97l-266 -154l247 -154l387 97l58 -134l-230 -100l230 -115l-39 -77l-229 114l57 -209l-133 -18l-119 367l-268 172v-291l268 -305l-76 -136l-192 172l20 -247h-115l19 247l-172 -172l-82 115l254 326v291l-254 -154 l-115 -367l-151 19l57 211l-211 -135z" />
<glyph unicode="g" horiz-adv-x="1884" d="M29 868q0 57 27.5 96.5t82.5 39.5l305 -21q123 -23 193 -55.5t70 -67.5q0 -31 -62.5 -60.5t-181.5 -45.5l-344 -19q-41 0 -65.5 40t-24.5 93zM158 215l463 424q39 31 65.5 44t44.5 13q14 1 14 -22q0 -41 -49 -96l-442 -496q-18 53 -33 74q-20 31 -63 59zM158 1542 q39 12 61 39q12 14 35 57l481 -522q19 -18 19 -51q0 -29 -23 -29q-4 0 -22.5 9.5t-30.5 13.5zM754 868q0 70 46 112t107 42q59 0 105.5 -42t46.5 -112t-45 -110.5t-103 -40.5q-61 0 -106 39q-51 45 -51 112zM793 43l18 363q0 111 28.5 186.5t63.5 75.5q29 0 58.5 -65.5 t42.5 -196.5l36 -381q-14 -23 -55 -38.5t-78 -15.5q-41 0 -73.5 18.5t-40.5 53.5zM793 1675q0 43 33.5 66.5t80.5 23.5q53 0 93 -24.5t40 -65.5l-18 -266q-20 -172 -53 -261t-62 -89q-33 0 -64.5 109.5t-31.5 240.5zM1079 1065q0 39 58 109l444 464q0 -29 21.5 -55.5 t54.5 -40.5l-420 -405q-37 -41 -77 -67t-62 -26q-18 0 -19 21zM1087 674q0 14 15 14q25 0 74 -30.5t79 -61.5l402 -399q-68 -35 -96 -115l-387 438q-86 123 -87 154zM1112 868q0 31 75 63t202 52l325 21q43 -10 66.5 -53.5t23.5 -90.5q0 -49 -20.5 -87t-50.5 -38l-344 19 q-276 51 -277 114z" />
<glyph unicode="h" d="M10 850q20 106 70.5 153.5t124.5 47.5q106 0 254 -74q107 -53 205 -127q-145 -115 -267 -172q-98 -47 -168 -47q-74 0 -127 47q-61 55 -92 172zM104 1561l78 77l482 -501l-58 -78zM125 139l500 500l57 -80l-500 -498zM659 1485q0 78 53.5 139.5t161.5 89.5 q117 -23 170.5 -81t53.5 -138q0 -88 -60 -209q-51 -106 -145 -227q100 -23 154 -88q47 -57 47 -131q0 -84 -59.5 -151.5t-141.5 -67.5q104 -127 159.5 -240t55.5 -199q0 -82 -53.5 -142t-161.5 -93q-111 35 -163 94t-52 135q0 111 100 277q39 63 115 168l-25 -5 q-82 0 -138 69t-56 155q0 80 51 137q59 66 168 82q-102 102 -168 217t-66 209zM1102 850q111 82 203 131q147 78 251 78q78 0 135.5 -44.5t88.5 -146.5q0 -123 -74 -190q-61 -57 -150 -57q-123 0 -268 88q-86 51 -186 141zM1102 1116l502 522l57 -77l-496 -502zM1122 559 l62 80l477 -481l-57 -97z" />
<glyph unicode="i" horiz-adv-x="1669" d="M14 520q0 98 63.5 166t151.5 68q47 0 89 -17.5t83 -58.5l310 172l-291 172q-47 -37 -98.5 -56.5t-92.5 -19.5q-90 0 -152.5 74t-62.5 164q0 92 73 155.5t153 63.5q92 0 157.5 -74t65.5 -182v-25q-4 -16 -4 -24l291 -172v368q-84 23 -133.5 87.5t-49.5 136.5 q0 92 66.5 162.5t173.5 70.5q94 0 161.5 -71.5t67.5 -161.5q0 -72 -45 -130.5t-145 -93.5v-368l328 190q-6 35 -7 66q0 106 62.5 159.5t154.5 53.5q88 0 154 -72t66 -154q0 -90 -63.5 -159.5t-151.5 -69.5t-177 82l-309 -172l328 -172q31 37 69.5 54.5t79.5 17.5 q80 0 147.5 -70t67.5 -156q0 -74 -69.5 -143.5t-145.5 -69.5q-88 0 -150.5 64.5t-62.5 165.5q0 27 7 55l-328 178v-350q100 -31 151 -96q43 -57 43 -127q0 -90 -65.5 -162t-149.5 -72q-106 0 -176.5 68.5t-70.5 161.5q0 63 44 126.5t128 100.5v350l-312 -178q14 -43 15 -86 q0 -94 -69 -153.5t-155 -59.5q-78 0 -146.5 73.5t-68.5 149.5z" />
<glyph unicode="j" horiz-adv-x="1884" d="M25 854q0 43 36.5 75t106.5 32q20 0 227 -46q70 -14 207 -47v-37q-139 -33 -209 -47q-217 -49 -225 -49q-66 0 -104.5 36t-38.5 83zM248 1403q0 43 33.5 76.5t76.5 33.5q37 0 76 -28.5t68 -75.5l194 -311l-18 -19l-291 158q-68 33 -103.5 79t-35.5 87zM262 276 q0 45 35 93.5t109 93.5l290 176l21 -18l-197 -291q-39 -57 -88 -98.5t-84 -41.5q-33 0 -59.5 25t-26.5 61zM674 817l4 33q0 109 70.5 169t169.5 60q98 0 163 -55q74 -63 74 -174q0 -119 -80 -191q-72 -63 -168 -63q-98 16 -162 70q-72 59 -71 151zM797 1599q0 61 29.5 95.5 t70.5 34.5q43 0 77 -39t34 -105q0 -10 -41 -221q-12 -70 -41 -209h-37q-31 143 -45 215q-47 225 -47 229zM803 104q0 12 43 224q14 70 43 211h37q37 -141 55 -213q55 -218 55 -230q0 -59 -40 -97t-89 -38q-43 0 -73.5 38t-30.5 105zM1116 1098l215 329q27 41 63 63.5 t66 22.5q39 0 67.5 -30.5t28.5 -73.5q0 -39 -29.5 -80t-80.5 -74l-291 -196zM1137 621l18 18l330 -215q41 -27 68.5 -64.5t27.5 -68.5q0 -43 -32.5 -76t-78.5 -33q-37 0 -71.5 25.5t-67.5 83.5zM1237 831v37q137 33 205 50q211 51 215 51q68 0 105.5 -36t37.5 -83 q0 -43 -37 -74t-96 -31q-12 0 -221 43q-70 14 -209 43z" />
<glyph unicode="k" d="M18 850q0 53 44 95t122 42q12 0 41 -4l492 -76l18 39l-424 248q-41 25 -68.5 71t-27.5 81q0 53 42 91t101 38q49 0 96.5 -25t84.5 -80l254 -348l57 18l-105 502q-2 6 -2 12v11q0 57 48.5 105t101.5 48q51 0 102.5 -47t51.5 -104q0 -14 -3 -21l-98 -506l58 -18l233 367 q33 57 79 83.5t93 26.5q55 0 101 -44t46 -99q0 -37 -21.5 -74t-68.5 -70l-387 -266l19 -39l506 82q10 2 20 2q48 0 94 -40q54 -48 54 -101q0 -52 -38 -100q-32 -40 -75 -40q-8 0 -17 1l-544 82l-19 -39l406 -273q47 -29 68.5 -70.5t21.5 -80.5q0 -57 -45 -102.5t-103 -45.5 q-35 0 -76.5 31t-76.5 78l-270 368l-58 -20l105 -549q2 -9 2 -17q0 -41 -41 -77q-49 -43 -105 -43q-55 0 -101 46q-39 39 -39 88q0 8 1 17l82 535l-57 20l-254 -348q-35 -51 -79 -78.5t-87 -27.5q-49 0 -84 34.5t-35 86.5q0 43 35 97t98 97l348 234l-18 39l-516 -76 q-10 -1 -19 -1q-53 0 -104 37q-60 44 -60 97z" />
<glyph unicode="l" horiz-adv-x="1826" d="M-2 840q0 170 58.5 322.5t182 285.5t295 205.5t351.5 72.5q170 0 322.5 -58t281.5 -179q139 -129 212 -300t73 -353q0 -164 -59.5 -318.5t-178.5 -281.5q-127 -137 -298 -210t-353 -73q-170 0 -322.5 58.5t-281.5 178.5q-137 127 -210 298t-73 352z" />
<glyph unicode="m" horiz-adv-x="2041" d="M-10 850q0 373 309 623q292 235 691 235h3q391 0 676 -244q297 -253 297 -624q0 -383 -301 -641q-291 -250 -694 -250q-399 0 -686 254q-295 262 -295 647zM84 840q0 -178 74.5 -338t220.5 -277q106 -84 234 -128t257 -44q178 0 338 75t277 220q84 106 128 234.5 t44 257.5q0 178 -75 337.5t-220 276.5q-106 84 -234.5 128t-257.5 44q-178 0 -337.5 -74.5t-276.5 -220.5q-84 -106 -128 -234t-44 -257z" />
<glyph unicode="n" horiz-adv-x="1802" d="M18 4v1710h1711v-1710h-1711z" />
<glyph unicode="o" horiz-adv-x="1744" d="M10 272v1442h1422v-248h249v-1462h-1423v268h-248zM86 348h1270v1290h-1270v-1290z" />
<glyph unicode="p" horiz-adv-x="1773" d="M18 4v1442h250v268h1440v-1442h-266v-268h-1424zM96 100h1270v1270h-1270v-1270z" />
<glyph unicode="q" horiz-adv-x="1744" d="M10 272v1424h1403l268 -287v-1405h-1405zM86 311h1288v1307h-1288v-1307z" />
<glyph unicode="r" horiz-adv-x="1773" d="M18 4v1423l287 269h1403v-1405l-266 -287h-1424zM96 82h1307v1327h-1307v-1327z" />
<glyph unicode="s" horiz-adv-x="2099" d="M29 25l997 1726l1004 -1726h-2001z" />
<glyph unicode="t" horiz-adv-x="2099" d="M29 1696h2001l-1004 -1729z" />
<glyph unicode="u" d="M10 868l883 865l887 -865l-887 -882z" />
<glyph unicode="v" d="M10 868l381 344l387 -362l-387 -369zM524 367l369 368l367 -368l-367 -400zM524 1331l369 383l367 -383l-367 -348zM989 850l385 362l402 -362l-402 -369z" />
<glyph unicode="w" horiz-adv-x="1001" d="M10 -14v1765q426 0 688 -291q234 -260 234 -610q0 -344 -246 -594q-264 -270 -676 -270z" />
<glyph unicode="x" horiz-adv-x="274" d="M4 -14v1728h193v-1728h-193z" />
<glyph unicode="y" horiz-adv-x="593" d="M18 4v1710h517v-1710h-517z" />
<glyph unicode="z" horiz-adv-x="919" d="M10 4v1710h844v-1710h-844z" />
<glyph unicode="{" horiz-adv-x="882" d="M14 1069q0 295 142 467q162 197 487 197q98 0 98 -35q0 -39 -98 -39q-139 0 -199 -21q-102 -35 -163 -149q-20 -45 -21 -47q-8 -23 -8 -39q0 -23 17.5 -35t41.5 -12q25 0 89.5 9t82.5 9h23q113 0 203 -112.5t90 -245.5q0 -49 -15.5 -98.5t-46.5 -94.5q-59 -82 -149 -126 t-182 -44q-152 0 -265 105q-127 117 -127 311z" />
<glyph unicode="|" horiz-adv-x="882" d="M4 1366q0 141 98 240q113 111 314 110q174 0 270 -96q113 -111 113 -338v-35q0 -231 -167 -412.5t-366 -181.5l-86 -6q-63 0 -105 11.5t-42 23.5q0 16 55 30.5t100 14.5q150 0 242 64q49 33 102 108q25 29 25 59q0 29 -27.5 50.5t-74.5 21.5h-39q-45 -8 -90 -14 q-137 0 -229.5 106.5t-92.5 243.5z" />
<glyph unicode="}" horiz-adv-x="1570" d="M25 1092q0 41 6 83t22 87q66 184 209 313q176 158 400 158q49 0 78.5 -14.5t29.5 -30.5q0 -18 -31.5 -33t-95.5 -15q-125 0 -272 -110q-133 -100 -133 -150q8 -10 14 -10q4 0 23.5 8t39.5 17q35 6 70 10t64 4q88 0 159.5 -43t128.5 -141q47 174 172 303q145 154 363 205 q12 4 30.5 4t28.5 2q47 0 77 -17.5t30 -38.5q0 -16 -19.5 -29.5t-52.5 -13.5h-20q-100 0 -252 -104q-143 -98 -144 -147q0 -18 23 -19l28 4q25 16 55.5 22.5t71.5 6.5q131 0 244 -82q127 -92 127 -234v-57q0 -170 -125 -282q-117 -104 -272 -105q-111 0 -197 62 q-96 68 -131 194q-63 -127 -162 -194q-88 -61 -186 -62q-158 0 -276 129q-125 135 -125 320z" />
<glyph unicode="~" horiz-adv-x="1519" d="M4 1341q0 174 113 277q102 94 252 94q117 0 218 -58.5t144 -164.5q41 109 130 166t198 57q137 0 252.5 -81t144.5 -218q4 -25 4 -51v-51q0 -221 -145.5 -410.5t-374.5 -247.5q-35 -8 -62.5 -14t-50.5 -6q-39 0 -60.5 11t-21.5 28q0 25 40 49t100 24q14 0 82 33 q156 76 204 137q47 72 48 82l-15 4q-51 -12 -103 -22t-85 -10q-18 0 -51 4q-57 12 -111 55q-61 51 -102 133q-20 -154 -142 -289q-162 -182 -430 -219q-25 -6 -42 -10t-25 -4q-33 0 -58.5 11.5t-25.5 25.5q0 16 38.5 36.5t112.5 32.5q84 18 142 48q72 37 141 106 q55 53 55 66q-18 4 -26 4q-16 0 -61.5 -2t-57.5 -2h-29h-25q-16 4 -24 4q-104 16 -176 86q-86 84 -109 245z" />
<glyph unicode="&#xac;" horiz-adv-x="2457" d="M80 -170v1567h2300v-1567h-2300zM127 -88v-35h317v35h-34q-39 0 -52 4q-33 12 -32 80l2 328q35 0 71.5 -1t73.5 -1l10 51l-4 4h-151v74v51q0 66 17 102.5t73 36.5q35 0 59 -18l23 -111h59q55 164 117 319q45 117 133 318q18 -53 119 -315q76 -201 110 -322h62 q31 125 110 406q94 328 123 370q15 8 60 8v37h-244v-37q29 0 65.5 -5t36.5 -21q0 -51 -77 -316l-82 -266l-238 651h-29l-250 -645q-33 137 -65.5 282.5t-56.5 268.5q-8 12 -7 21q0 20 31 25t45 5h25v37h-293v-37q53 0 66.5 -13t25.5 -73q20 -88 45 -180q57 -215 66 -305 q-47 0 -120 -66.5t-95 -117.5q-8 -20 -11.5 -43t-3.5 -62v-61l-82 -41v-21l82 9l2 -314q0 -66 -17 -81t-85 -15zM440 150q0 -121 70 -203t188 -82q131 0 215 84t84 215q0 115 -73.5 186.5t-190.5 71.5q-125 0 -209 -74t-84 -198zM553 188q0 80 39 139.5t115 59.5 q98 0 145 -92q37 -71 37 -180q0 -84 -33 -142q-41 -70 -121 -69q-94 0 -143 100q-39 78 -39 184zM973 -88v-35h295l-2 35q-61 0 -81 17.5t-20 64.5q0 12 2 48t2 60v58q0 94 21 131q33 57 129 57q78 0 108 -47q25 -39 25 -127v-111v-24q0 -90 -8 -162h198v35q-59 0 -75.5 10 t-16.5 47q2 41 2 68v188q0 197 -190 197q-51 0 -102.5 -31t-88.5 -78q2 37 3 56q0 33 -11 53q-47 -20 -94 -32.5t-96 -12.5v-35q23 2 35 2q27 0 44 -7t17 -28v-352q0 -23 -10 -35t-43 -12q-29 2 -43 2zM1311 1090q0 -178 236.5 -201t236.5 -154q0 -86 -65.5 -131t-155.5 -45 q-53 0 -107 16q-72 23 -86 60l-2 98h-39v-67v-29q0 -41 -6 -82q104 -43 217 -43q55 0 105 12q10 -82 10 -147q-39 -23 -92 -39v-25h92v-321q0 -127 131 -127q16 0 36.5 4t37.5 8l55 70l-17 22q-27 -31 -65 -30q-39 0 -60.5 28.5t-21.5 108.5v26v222q16 0 52 2t52 2 q31 0 60 -6l12 55h-176q0 49 2 99t8 95q57 47 86 91q37 55 37 118q0 180 -235.5 200.5t-235.5 152.5q0 78 55.5 120.5t137.5 42.5q39 0 90 -15t78 -38q10 -23 10 -69v-41h37q0 61 3 87.5t15 75.5q-109 43 -227 43q-127 0 -209 -59q-92 -68 -92 -190zM1858 522h327v37h-33 q-43 0 -59 10.5t-16 55.5v512q0 20 -1 40.5t-1 39.5q0 49 19.5 64t90.5 15v37h-327v-37q76 0 92 -14t16 -76v-49v-528q0 -45 -19.5 -57.5t-60.5 -12.5h-28v-37zM1927 254q0 -109 159 -139.5t159 -104.5q0 -51 -37 -78.5t-90 -27.5q-86 0 -117 30.5t-31 114.5h-33 q0 -23 -4 -77t-4 -60q0 -20 46 -33.5t122 -13.5q96 0 162 45q78 53 78 145q0 102 -160 135t-160 103q0 43 32 68.5t77 25.5q33 0 63.5 -15.5t55.5 -43.5q6 -29 8 -35q2 -12 2 -37l33 -2q0 35 6 77t8 64q-86 27 -164 27q-90 0 -145 -37q-66 -45 -66 -131z" />
<glyph unicode="&#xad;" horiz-adv-x="2007" d="M0 160q0 37 10 57l135 250h-39q49 113 105 285q45 139 90 280q115 119 180 172q117 94 305 199l136 -94l192 211q41 41 84 41q41 0 78 -42t37 -87q0 -25 -19 -48l-198 -217q86 -55 174 -108q113 -70 188 -70l47 43l391 -18q45 -162 46 -342q0 -121 -15.5 -223.5 t-48.5 -231.5h-352l-58 117l-213 -39q-10 -2 -32 -2q-33 0 -86 8q-123 18 -148 18q-12 0 -33 -4q-70 -16 -124 -22t-111 -6q-96 0 -183 22.5t-161 42.5l-98 -116q-39 -33 -64 -48q-78 -47 -147 -47q-31 -6 -45 -6q-23 0 -23 25zM82 231l16 -18q29 0 76 25.5t47 48.5v8 q-16 20 -26 29q-31 29 -45 28q-27 -35 -41 -57q-27 -41 -27 -64zM164 487l14 -8q6 0 17 4q2 0 8 4q16 16 33.5 34.5t23.5 43.5q4 20 4 33q0 23 -6 46.5t-12 23.5zM260 487h41q70 72 117 166q37 82 76 166l391 451q-12 4 -68 30q-25 12 -41 13q-39 0 -147 -88 q-133 -109 -252 -232q-27 -27 -64 -123q-27 -74 -53 -145q25 0 42 -23.5t17 -60.5q0 -31 -15 -72t-44 -82zM395 449q0 -23 41 -41q27 -12 51 -13q27 0 45.5 12.5t22.5 41.5v24l-4 57l8 7q6 0 25.5 -19.5t27.5 -30.5l4 -38q0 -23 -11 -45.5t-11 -32.5l106 -4q113 0 201 21.5 t98 21.5q94 -18 135.5 -23.5t102.5 -5.5q70 0 142.5 12t146.5 35q10 41 16 89t6 99q0 125 -43 302h-135l-332 192q-27 -39 -57 -74q-16 -18 -59 -61q-12 -14 -15.5 -30.5t-3.5 -51.5t-3 -58.5t-15 -52.5l-80 -96l29 -4q31 0 67 14q57 23 117 47l-76 -116l-348 -25 q-55 0 -121 -41q-78 -49 -78 -112zM672 686q23 -6 39 -6q57 0 75 45q27 41 42.5 83t15.5 71zM1563 295h237q25 129 33 201.5t8 130.5q0 86 -13 155.5t-48 153.5h-197q16 -100 24.5 -178t8.5 -156q0 -90 -11.5 -157.5t-41.5 -149.5z" />
<glyph unicode="&#xfd;" horiz-adv-x="0" />
<glyph unicode="&#x2000;" horiz-adv-x="882" />
<glyph unicode="&#x2001;" horiz-adv-x="1765" />
<glyph unicode="&#x2002;" horiz-adv-x="882" />
<glyph unicode="&#x2003;" horiz-adv-x="1765" />
<glyph unicode="&#x2004;" horiz-adv-x="588" />
<glyph unicode="&#x2005;" horiz-adv-x="441" />
<glyph unicode="&#x2006;" horiz-adv-x="294" />
<glyph unicode="&#x2007;" horiz-adv-x="294" />
<glyph unicode="&#x2008;" horiz-adv-x="220" />
<glyph unicode="&#x2009;" horiz-adv-x="353" />
<glyph unicode="&#x200a;" horiz-adv-x="98" />
<glyph unicode="&#x2010;" horiz-adv-x="2007" d="M0 160q0 37 10 57l135 250h-39q49 113 105 285q45 139 90 280q115 119 180 172q117 94 305 199l136 -94l192 211q41 41 84 41q41 0 78 -42t37 -87q0 -25 -19 -48l-198 -217q86 -55 174 -108q113 -70 188 -70l47 43l391 -18q45 -162 46 -342q0 -121 -15.5 -223.5 t-48.5 -231.5h-352l-58 117l-213 -39q-10 -2 -32 -2q-33 0 -86 8q-123 18 -148 18q-12 0 -33 -4q-70 -16 -124 -22t-111 -6q-96 0 -183 22.5t-161 42.5l-98 -116q-39 -33 -64 -48q-78 -47 -147 -47q-31 -6 -45 -6q-23 0 -23 25zM82 231l16 -18q29 0 76 25.5t47 48.5v8 q-16 20 -26 29q-31 29 -45 28q-27 -35 -41 -57q-27 -41 -27 -64zM164 487l14 -8q6 0 17 4q2 0 8 4q16 16 33.5 34.5t23.5 43.5q4 20 4 33q0 23 -6 46.5t-12 23.5zM260 487h41q70 72 117 166q37 82 76 166l391 451q-12 4 -68 30q-25 12 -41 13q-39 0 -147 -88 q-133 -109 -252 -232q-27 -27 -64 -123q-27 -74 -53 -145q25 0 42 -23.5t17 -60.5q0 -31 -15 -72t-44 -82zM395 449q0 -23 41 -41q27 -12 51 -13q27 0 45.5 12.5t22.5 41.5v24l-4 57l8 7q6 0 25.5 -19.5t27.5 -30.5l4 -38q0 -23 -11 -45.5t-11 -32.5l106 -4q113 0 201 21.5 t98 21.5q94 -18 135.5 -23.5t102.5 -5.5q70 0 142.5 12t146.5 35q10 41 16 89t6 99q0 125 -43 302h-135l-332 192q-27 -39 -57 -74q-16 -18 -59 -61q-12 -14 -15.5 -30.5t-3.5 -51.5t-3 -58.5t-15 -52.5l-80 -96l29 -4q31 0 67 14q57 23 117 47l-76 -116l-348 -25 q-55 0 -121 -41q-78 -49 -78 -112zM672 686q23 -6 39 -6q57 0 75 45q27 41 42.5 83t15.5 71zM1563 295h237q25 129 33 201.5t8 130.5q0 86 -13 155.5t-48 153.5h-197q16 -100 24.5 -178t8.5 -156q0 -90 -11.5 -157.5t-41.5 -149.5z" />
<glyph unicode="&#x2011;" horiz-adv-x="2007" d="M0 160q0 37 10 57l135 250h-39q49 113 105 285q45 139 90 280q115 119 180 172q117 94 305 199l136 -94l192 211q41 41 84 41q41 0 78 -42t37 -87q0 -25 -19 -48l-198 -217q86 -55 174 -108q113 -70 188 -70l47 43l391 -18q45 -162 46 -342q0 -121 -15.5 -223.5 t-48.5 -231.5h-352l-58 117l-213 -39q-10 -2 -32 -2q-33 0 -86 8q-123 18 -148 18q-12 0 -33 -4q-70 -16 -124 -22t-111 -6q-96 0 -183 22.5t-161 42.5l-98 -116q-39 -33 -64 -48q-78 -47 -147 -47q-31 -6 -45 -6q-23 0 -23 25zM82 231l16 -18q29 0 76 25.5t47 48.5v8 q-16 20 -26 29q-31 29 -45 28q-27 -35 -41 -57q-27 -41 -27 -64zM164 487l14 -8q6 0 17 4q2 0 8 4q16 16 33.5 34.5t23.5 43.5q4 20 4 33q0 23 -6 46.5t-12 23.5zM260 487h41q70 72 117 166q37 82 76 166l391 451q-12 4 -68 30q-25 12 -41 13q-39 0 -147 -88 q-133 -109 -252 -232q-27 -27 -64 -123q-27 -74 -53 -145q25 0 42 -23.5t17 -60.5q0 -31 -15 -72t-44 -82zM395 449q0 -23 41 -41q27 -12 51 -13q27 0 45.5 12.5t22.5 41.5v24l-4 57l8 7q6 0 25.5 -19.5t27.5 -30.5l4 -38q0 -23 -11 -45.5t-11 -32.5l106 -4q113 0 201 21.5 t98 21.5q94 -18 135.5 -23.5t102.5 -5.5q70 0 142.5 12t146.5 35q10 41 16 89t6 99q0 125 -43 302h-135l-332 192q-27 -39 -57 -74q-16 -18 -59 -61q-12 -14 -15.5 -30.5t-3.5 -51.5t-3 -58.5t-15 -52.5l-80 -96l29 -4q31 0 67 14q57 23 117 47l-76 -116l-348 -25 q-55 0 -121 -41q-78 -49 -78 -112zM672 686q23 -6 39 -6q57 0 75 45q27 41 42.5 83t15.5 71zM1563 295h237q25 129 33 201.5t8 130.5q0 86 -13 155.5t-48 153.5h-197q16 -100 24.5 -178t8.5 -156q0 -90 -11.5 -157.5t-41.5 -149.5z" />
<glyph unicode="&#x2012;" horiz-adv-x="2007" d="M0 160q0 37 10 57l135 250h-39q49 113 105 285q45 139 90 280q115 119 180 172q117 94 305 199l136 -94l192 211q41 41 84 41q41 0 78 -42t37 -87q0 -25 -19 -48l-198 -217q86 -55 174 -108q113 -70 188 -70l47 43l391 -18q45 -162 46 -342q0 -121 -15.5 -223.5 t-48.5 -231.5h-352l-58 117l-213 -39q-10 -2 -32 -2q-33 0 -86 8q-123 18 -148 18q-12 0 -33 -4q-70 -16 -124 -22t-111 -6q-96 0 -183 22.5t-161 42.5l-98 -116q-39 -33 -64 -48q-78 -47 -147 -47q-31 -6 -45 -6q-23 0 -23 25zM82 231l16 -18q29 0 76 25.5t47 48.5v8 q-16 20 -26 29q-31 29 -45 28q-27 -35 -41 -57q-27 -41 -27 -64zM164 487l14 -8q6 0 17 4q2 0 8 4q16 16 33.5 34.5t23.5 43.5q4 20 4 33q0 23 -6 46.5t-12 23.5zM260 487h41q70 72 117 166q37 82 76 166l391 451q-12 4 -68 30q-25 12 -41 13q-39 0 -147 -88 q-133 -109 -252 -232q-27 -27 -64 -123q-27 -74 -53 -145q25 0 42 -23.5t17 -60.5q0 -31 -15 -72t-44 -82zM395 449q0 -23 41 -41q27 -12 51 -13q27 0 45.5 12.5t22.5 41.5v24l-4 57l8 7q6 0 25.5 -19.5t27.5 -30.5l4 -38q0 -23 -11 -45.5t-11 -32.5l106 -4q113 0 201 21.5 t98 21.5q94 -18 135.5 -23.5t102.5 -5.5q70 0 142.5 12t146.5 35q10 41 16 89t6 99q0 125 -43 302h-135l-332 192q-27 -39 -57 -74q-16 -18 -59 -61q-12 -14 -15.5 -30.5t-3.5 -51.5t-3 -58.5t-15 -52.5l-80 -96l29 -4q31 0 67 14q57 23 117 47l-76 -116l-348 -25 q-55 0 -121 -41q-78 -49 -78 -112zM672 686q23 -6 39 -6q57 0 75 45q27 41 42.5 83t15.5 71zM1563 295h237q25 129 33 201.5t8 130.5q0 86 -13 155.5t-48 153.5h-197q16 -100 24.5 -178t8.5 -156q0 -90 -11.5 -157.5t-41.5 -149.5z" />
<glyph unicode="&#x2013;" horiz-adv-x="1089" d="M0 160q0 37 5 57l71 250h-20q26 113 55 285q24 139 48 280q60 119 95 172q61 94 160 199l72 -94l101 211q22 41 45 41q21 0 40.5 -42t19.5 -87q0 -25 -10 -48l-104 -217q45 -55 92 -108q59 -70 99 -70l25 43l206 -18q23 -162 24 -342q0 -121 -8 -223.5t-26 -231.5h-185 l-31 117l-112 -39q-6 -2 -17 -2q-18 0 -45 8q-65 18 -79 18q-6 0 -17 -4q-37 -16 -65.5 -22t-58.5 -6q-50 0 -96 22.5t-85 42.5l-52 -116q-20 -33 -34 -48q-41 -47 -77 -47q-16 -6 -24 -6q-12 0 -12 25zM43 231l9 -18q15 0 40 25.5t25 48.5v8q-9 20 -14 29q-17 29 -24 28 q-14 -35 -22 -57q-14 -41 -14 -64zM86 487l8 -8q3 0 9 4q1 0 4 4q8 16 17.5 34.5t12.5 43.5q2 20 2 33q0 23 -3 46.5t-6 23.5zM137 487h22q37 72 61 166q20 82 40 166l207 451q-7 4 -36 30q-13 12 -22 13q-20 0 -77 -88q-70 -109 -133 -232q-14 -27 -34 -123 q-14 -74 -28 -145q13 0 22 -23.5t9 -60.5q0 -31 -8 -72t-23 -82zM208 449q0 -23 22 -41q14 -12 27 -13q14 0 24 12.5t12 41.5v24l-2 57l4 7q3 0 13 -19.5t15 -30.5l2 -38q0 -23 -6 -45.5t-6 -32.5l56 -4q60 0 106 21.5t52 21.5q49 -18 71 -23.5t54 -5.5q37 0 75.5 12 t77.5 35q5 41 8 89t3 99q0 125 -22 302h-72l-175 192q-14 -39 -30 -74q-8 -18 -31 -61q-6 -14 -8 -30.5t-2 -51.5t-1.5 -58.5t-7.5 -52.5l-43 -96l16 -4q16 0 35 14q30 23 62 47l-40 -116l-184 -25q-29 0 -64 -41q-41 -49 -41 -112zM354 686q12 -6 21 -6q30 0 39 45 q15 41 23 83t8 71zM824 295h125q13 129 17.5 201.5t4.5 130.5q0 86 -7 155.5t-25 153.5h-104q8 -100 12.5 -178t4.5 -156q0 -90 -6 -157.5t-22 -149.5z" />
<glyph unicode="&#x2014;" horiz-adv-x="2113" d="M0 160q0 37 11 57l142 250h-41q51 113 111 285q47 139 94 280q122 119 190 172q124 94 322 199l143 -94l203 211q43 41 88 41q44 0 83 -42t39 -87q0 -25 -20 -48l-209 -217q91 -55 183 -108q119 -70 199 -70l49 43l412 -18q48 -162 49 -342q0 -121 -16.5 -223.5 t-50.5 -231.5h-372l-61 117l-224 -39q-11 -2 -34 -2q-35 0 -91 8q-130 18 -156 18q-13 0 -35 -4q-74 -16 -131 -22t-117 -6q-101 0 -192.5 22.5t-169.5 42.5l-104 -116q-41 -33 -67 -48q-83 -47 -155 -47q-33 -6 -48 -6q-24 0 -24 25zM86 231l17 -18q31 0 80.5 25.5 t49.5 48.5v8q-17 20 -27 29q-33 29 -48 28q-28 -35 -43 -57q-29 -41 -29 -64zM173 487l15 -8q6 0 18 4q2 0 8 4q17 16 35.5 34.5t24.5 43.5q4 20 4 33q0 23 -6 46.5t-13 23.5zM274 487h43q74 72 124 166q39 82 80 166l412 451q-12 4 -71 30q-27 12 -44 13q-41 0 -155 -88 q-140 -109 -265 -232q-29 -27 -68 -123q-28 -74 -56 -145q27 0 44.5 -23.5t17.5 -60.5q0 -31 -15.5 -72t-46.5 -82zM417 449q0 -23 43 -41q28 -12 54 -13q28 0 47.5 12.5t23.5 41.5v24l-4 57l9 7q6 0 26.5 -19.5t28.5 -30.5l5 -38q0 -23 -12 -45.5t-12 -32.5l112 -4 q119 0 212 21.5t104 21.5q99 -18 142.5 -23.5t108.5 -5.5q73 0 149.5 12t154.5 35q11 41 17 89t6 99q0 125 -45 302h-142l-350 192q-29 -39 -60 -74q-17 -18 -63 -61q-12 -14 -16 -30.5t-4 -51.5t-3 -58.5t-16 -52.5l-84 -96l31 -4q32 0 70 14q60 23 124 47l-81 -116 l-367 -25q-58 0 -127 -41q-82 -49 -82 -112zM709 686q24 -6 41 -6q60 0 79 45q28 41 44.5 83t16.5 71zM1648 295h250q27 129 35 201.5t8 130.5q0 86 -13.5 155.5t-50.5 153.5h-208q17 -100 26 -178t9 -156q0 -90 -12 -157.5t-44 -149.5z" />
<glyph unicode="&#x202f;" horiz-adv-x="353" />
<glyph unicode="&#x205f;" horiz-adv-x="441" />
<glyph unicode="&#x25fc;" horiz-adv-x="1710" d="M0 0v1710h1710v-1710h-1710z" />
</font>
</defs>
</svg>
